<?xml version="1.0" encoding="UTF-8" standalone="no"?><svg xmlns="http://www.w3.org/2000/svg" xmlns:xlink="http://www.w3.org/1999/xlink" width="500" zoomAndPan="magnify" viewBox="0 0 375 374.999991" height="500" preserveAspectRatio="xMidYMid meet" version="1.0"><defs><clipPath id="7f9d5904a4"><path d="M 6.445312 50 L 368.695312 50 L 368.695312 326.671875 L 6.445312 326.671875 Z M 6.445312 50 " clip-rule="nonzero"/></clipPath></defs><path fill="#9c753b" d="M 187.484375 301.085938 C 187.484375 301.214844 187.484375 301.34375 187.476562 301.472656 C 187.46875 301.738281 187.449219 302 187.425781 302.257812 C 187.449219 301.996094 187.46875 301.738281 187.476562 301.472656 C 187.484375 301.34375 187.484375 301.214844 187.484375 301.085938 " fill-opacity="1" fill-rule="nonzero"/><g clip-path="url(#7f9d5904a4)"><path fill="#e8c187" d="M 298.671875 220.746094 C 304.289062 220.746094 308.898438 216.144531 308.898438 210.523438 C 308.898438 204.90625 304.289062 200.300781 298.671875 200.300781 C 293.050781 200.300781 288.449219 204.90625 288.449219 210.523438 C 288.449219 216.144531 293.050781 220.746094 298.671875 220.746094 Z M 298.671875 223.957031 C 306.066406 223.957031 312.109375 217.917969 312.109375 210.523438 C 312.109375 203.132812 306.066406 197.089844 298.671875 197.089844 C 291.28125 197.089844 285.277344 203.132812 285.277344 210.523438 C 285.277344 217.917969 291.28125 223.957031 298.671875 223.957031 Z M 275.433594 244.871094 C 281.054688 244.871094 285.617188 240.308594 285.617188 234.648438 C 285.617188 229.03125 281.054688 224.464844 275.433594 224.464844 C 269.816406 224.464844 265.207031 229.03125 265.207031 234.648438 C 265.207031 240.308594 269.816406 244.871094 275.433594 244.871094 Z M 275.433594 248.082031 C 282.832031 248.082031 288.828125 242.039062 288.828125 234.648438 C 288.828125 227.296875 282.832031 221.253906 275.433594 221.253906 C 268.039062 221.253906 261.996094 227.296875 261.996094 234.648438 C 261.996094 242.039062 268.039062 248.082031 275.433594 248.082031 Z M 168.121094 252.011719 C 173.738281 252.011719 178.300781 247.449219 178.300781 241.832031 C 178.300781 236.210938 173.738281 231.605469 168.121094 231.605469 C 162.5 231.605469 157.894531 236.210938 157.894531 241.832031 C 157.894531 247.449219 162.5 252.011719 168.121094 252.011719 Z M 168.121094 255.222656 C 175.515625 255.222656 181.511719 249.222656 181.511719 241.832031 C 181.511719 234.433594 175.515625 228.398438 168.121094 228.398438 C 160.726562 228.398438 154.683594 234.433594 154.683594 241.832031 C 154.683594 249.222656 160.726562 255.222656 168.121094 255.222656 Z M 121.601562 234.140625 C 127.222656 234.140625 131.828125 229.578125 131.828125 223.917969 C 131.828125 218.300781 127.222656 213.734375 121.601562 213.734375 C 115.984375 213.734375 111.378906 218.300781 111.378906 223.917969 C 111.378906 229.578125 115.984375 234.140625 121.601562 234.140625 Z M 121.601562 237.351562 C 128.996094 237.351562 135.039062 231.308594 135.039062 223.917969 C 135.039062 216.566406 128.996094 210.523438 121.601562 210.523438 C 114.210938 210.523438 108.210938 216.566406 108.210938 223.917969 C 108.210938 231.308594 114.210938 237.351562 121.601562 237.351562 Z M 80.453125 221.636719 C 86.113281 221.636719 90.675781 217.03125 90.675781 211.414062 C 90.675781 205.792969 86.113281 201.191406 80.453125 201.191406 C 74.832031 201.191406 70.269531 205.792969 70.269531 211.414062 C 70.269531 217.03125 74.832031 221.636719 80.453125 221.636719 Z M 80.453125 224.847656 C 87.84375 224.847656 93.886719 218.804688 93.886719 211.414062 C 93.886719 204.015625 87.84375 198.019531 80.453125 198.019531 C 73.101562 198.019531 67.058594 204.015625 67.058594 211.414062 C 67.058594 218.804688 73.101562 224.847656 80.453125 224.847656 Z M 156.5 185.851562 C 162.121094 185.851562 166.683594 181.289062 166.683594 175.628906 C 166.683594 170.011719 162.121094 165.445312 156.5 165.445312 C 150.839844 165.445312 146.277344 170.011719 146.277344 175.628906 C 146.277344 181.289062 150.839844 185.851562 156.5 185.851562 Z M 156.5 189.0625 C 163.894531 189.0625 169.894531 183.023438 169.894531 175.628906 C 169.894531 168.277344 163.894531 162.234375 156.5 162.234375 C 149.105469 162.234375 143.066406 168.277344 143.066406 175.628906 C 143.066406 183.023438 149.105469 189.0625 156.5 189.0625 Z M 233.394531 205.539062 C 239.011719 205.539062 243.621094 200.933594 243.621094 195.316406 C 243.621094 189.695312 239.011719 185.09375 233.394531 185.09375 C 227.773438 185.09375 223.171875 189.695312 223.171875 195.316406 C 223.171875 200.933594 227.773438 205.539062 233.394531 205.539062 Z M 233.394531 208.75 C 240.789062 208.75 246.832031 202.710938 246.832031 195.316406 C 246.832031 187.921875 240.789062 181.925781 233.394531 181.925781 C 226.003906 181.925781 219.960938 187.921875 219.960938 195.316406 C 219.960938 202.710938 226.003906 208.75 233.394531 208.75 Z M 299.550781 155.046875 C 307.394531 155.046875 313.824219 148.621094 313.824219 140.777344 C 313.824219 132.933594 307.394531 126.503906 299.550781 126.503906 C 291.703125 126.503906 285.332031 132.933594 285.332031 140.777344 C 285.332031 148.621094 291.703125 155.046875 299.550781 155.046875 Z M 363.875 219.003906 C 363.421875 214.320312 360.707031 207 359.175781 203.414062 C 358.492188 201.742188 358.503906 200.996094 358.691406 199.796875 C 358.742188 199.472656 358.800781 199.058594 358.835938 198.453125 C 358.859375 198.105469 358.863281 197.78125 358.871094 197.449219 L 276.726562 235.679688 L 271.128906 261.832031 C 272.167969 262.425781 273.257812 263.480469 274.535156 264.722656 C 275.488281 265.65625 276.472656 266.613281 277.21875 267.15625 C 283.171875 271.5 285.167969 272.960938 291.808594 275.609375 C 292.234375 275.765625 292.558594 275.960938 292.800781 276.105469 C 293.023438 276.234375 293.144531 276.308594 293.441406 276.402344 L 299.511719 278.164062 C 306.378906 279.753906 313.882812 279.851562 320.53125 278.421875 L 320.808594 278.363281 C 323.339844 277.851562 325.339844 277.445312 327.648438 276.601562 C 328.15625 276.402344 328.707031 276.214844 329.253906 276.027344 C 329.808594 275.835938 330.355469 275.652344 330.886719 275.441406 L 331.21875 275.316406 C 331.742188 275.121094 331.976562 275.039062 332.464844 274.8125 C 335.59375 273.46875 338.769531 271.6875 341.472656 269.765625 L 342.078125 269.320312 C 347.867188 265.078125 355.203125 257.847656 358.457031 250.25 C 358.78125 249.480469 359.171875 248.707031 359.5625 247.921875 C 360.085938 246.882812 360.582031 245.902344 360.933594 244.867188 C 362.199219 240.976562 363.070312 237.414062 363.589844 233.992188 C 364.320312 228.980469 364.398438 224.636719 363.875 219.003906 Z M 273.695312 235.699219 L 183.246094 210.519531 L 170.191406 240.757812 L 268.09375 261.699219 C 268.109375 261.691406 268.121094 261.683594 268.136719 261.675781 Z M 266.457031 264.371094 L 169.351562 243.605469 L 164.378906 277.332031 C 165.644531 278.203125 166.863281 279.828125 168.335938 281.925781 C 168.667969 282.398438 168.960938 282.820312 169.191406 283.113281 C 171.960938 286.660156 176.210938 290.492188 180.289062 293.113281 L 187.429688 297.246094 C 191.628906 299.699219 197.445312 301.484375 204.722656 302.558594 C 215.117188 304.148438 226.769531 302.265625 237.535156 297.285156 C 242.117188 295.183594 246.949219 291.90625 251.148438 288.054688 C 253.832031 285.617188 255.96875 283.222656 258.082031 280.269531 C 260.488281 276.996094 262.28125 274.285156 263.835938 270.867188 C 264.042969 270.40625 264.210938 270.109375 264.363281 269.839844 C 264.46875 269.652344 264.566406 269.484375 264.675781 269.199219 C 264.738281 269.058594 264.851562 268.71875 265.015625 268.269531 C 265.632812 266.539062 266.089844 265.289062 266.457031 264.371094 Z M 166.484375 242.78125 L 120.1875 224.957031 L 118.480469 197.464844 L 81.90625 212.414062 L 79.328125 305.289062 L 93.9375 283.34375 L 160.933594 277.460938 C 161.089844 277.332031 161.253906 277.207031 161.425781 277.085938 Z M 158.632812 280.632812 L 95.609375 286.160156 L 79.96875 309.664062 C 91.425781 321.117188 102.914062 324.984375 113.226562 320.824219 C 122.828125 316.945312 129.230469 306.582031 129.25 301.429688 L 129.253906 300.742188 L 129.664062 300.183594 C 130.980469 298.398438 131.597656 297.332031 131.96875 296.699219 C 132.910156 295.070312 133.480469 294.691406 135.359375 294.433594 C 136.027344 294.34375 137.035156 294.203125 138.742188 293.804688 C 143.429688 292.695312 147.753906 290.691406 151.246094 288.019531 C 151.535156 287.789062 151.804688 287.597656 152.050781 287.417969 C 152.367188 287.1875 152.648438 286.988281 152.953125 286.707031 C 155.359375 284.503906 157.140625 282.589844 158.632812 280.632812 Z M 78.929688 212.941406 L 25.890625 214.65625 C 25.4375 215.335938 24.914062 215.890625 24.3125 216.5 C 22.832031 218.023438 20.589844 220.324219 17.476562 227.121094 C 15.304688 231.929688 14.3125 239.914062 15.230469 245.277344 C 15.707031 247.996094 16.320312 249.976562 17.097656 252.488281 L 17.320312 253.203125 C 17.851562 254.902344 19.519531 257.867188 20.710938 259.515625 L 27.078125 266.75 C 27.8125 267.414062 28.453125 267.867188 29.023438 268.277344 C 30.335938 269.203125 31.820312 270.257812 31.820312 272.753906 C 31.6875 280.21875 33.429688 287.121094 36.722656 292.222656 L 41.269531 298.320312 C 43.695312 300.980469 48.476562 304.726562 52.058594 306.203125 C 57.945312 308.578125 66.828125 310.484375 72.398438 309.027344 L 73.09375 308.828125 C 74.058594 308.546875 75.113281 308.257812 76.285156 308.203125 Z M 22.644531 208.414062 C 22.796875 208.519531 23.046875 208.640625 23.308594 208.773438 C 23.960938 209.105469 24.746094 209.511719 25.390625 210.097656 L 90.019531 146.945312 L 27.507812 160.9375 L 27.363281 161.121094 C 26.941406 161.671875 26.515625 161.949219 26.203125 162.15625 C 26.121094 162.203125 26.027344 162.265625 25.921875 162.34375 L 25.707031 162.480469 C 25.453125 162.617188 25.269531 162.714844 25.113281 162.792969 C 24.839844 162.933594 24.796875 162.957031 24.492188 163.203125 C 23.867188 163.710938 23.332031 164.21875 22.898438 164.71875 L 22.691406 164.957031 L 22.425781 165.125 C 15.082031 169.746094 10.695312 177.691406 10.695312 186.359375 C 10.695312 193.785156 13.933594 200.773438 19.578125 205.53125 L 19.847656 205.804688 C 20.671875 206.804688 21.640625 207.710938 22.644531 208.414062 Z M 27.710938 157.863281 L 93.292969 143.183594 L 93.214844 82.019531 C 91.019531 81.851562 88.847656 82.578125 87.175781 84.054688 L 86.433594 84.574219 L 85.972656 84.648438 C 77.105469 86.023438 69.59375 92.164062 66.371094 100.671875 L 66.1875 101.164062 L 65.789062 101.511719 C 63.320312 103.675781 61.226562 106.421875 59.558594 109.675781 C 59.398438 110 59.253906 110.273438 59.152344 110.550781 L 58.867188 111.308594 L 58.148438 111.683594 C 51.851562 114.957031 45.851562 119.863281 40.789062 125.875 C 32.292969 135.96875 27.496094 147.78125 27.710938 157.863281 Z M 28.054688 211.625 L 80.140625 209.945312 L 119.195312 193.980469 L 153.300781 175.667969 L 95.050781 146.167969 Z M 151.539062 179.972656 L 121.363281 196.171875 L 122.824219 219.703125 Z M 123.925781 223.226562 L 167.324219 239.941406 L 180.695312 208.96875 L 156.546875 178.089844 Z M 153.050781 122.585938 C 152.367188 123.296875 151.765625 124.085938 151.253906 124.933594 L 96.171875 83.054688 L 96.25 142.59375 L 149.367188 132.789062 C 149.441406 133.792969 149.613281 134.765625 149.894531 135.695312 L 99.347656 145.023438 L 155.328125 173.378906 L 159.40625 144.8125 C 160.347656 145.058594 161.324219 145.203125 162.332031 145.234375 L 158.054688 175.214844 L 182.964844 207.074219 L 230.371094 194.585938 L 171.667969 141.820312 C 172.402344 141.15625 173.0625 140.421875 173.636719 139.617188 L 232.675781 192.679688 L 247.671875 144.988281 C 248.566406 145.386719 249.507812 145.691406 250.492188 145.882812 L 236.300781 191.003906 L 288.347656 148.101562 C 288.886719 148.933594 289.519531 149.699219 290.222656 150.386719 L 236.644531 194.554688 L 297.683594 208.78125 L 324.667969 125.640625 L 311.445312 134.550781 C 310.984375 133.671875 310.429688 132.851562 309.789062 132.101562 L 325.265625 121.671875 C 324.941406 110.214844 314.96875 97.066406 300.300781 88.835938 C 290.570312 83.378906 279.992188 80.757812 270.859375 81.453125 L 294.800781 128.234375 C 293.871094 128.589844 292.988281 129.039062 292.167969 129.582031 L 268.644531 83.613281 L 258.160156 120.320312 C 257.257812 119.953125 256.300781 119.683594 255.316406 119.519531 L 266.410156 80.671875 L 266.308594 80.429688 C 264.453125 76.042969 261.378906 72.265625 257.410156 69.507812 C 250.257812 64.582031 241.023438 63.738281 233.050781 67.195312 L 250.320312 119.605469 C 249.34375 119.8125 248.40625 120.132812 247.515625 120.542969 L 230.363281 68.492188 L 173.339844 123.640625 C 172.734375 122.855469 172.054688 122.136719 171.292969 121.507812 L 228.550781 66.128906 C 227.167969 64.527344 225.613281 63.121094 223.894531 61.964844 C 215.949219 56.453125 205.757812 55.960938 197.28125 60.664062 L 196.640625 61.023438 L 195.0625 60.761719 L 194.609375 60.359375 C 194.027344 59.847656 193.417969 59.367188 192.570312 58.753906 C 183.902344 52.804688 172.28125 52.902344 163.683594 59.015625 L 163.265625 59.316406 L 162.757812 59.386719 C 161.804688 59.527344 160.992188 59.6875 160.203125 59.890625 C 159.230469 60.140625 158.574219 60.320312 158.089844 60.460938 L 163.085938 118.445312 C 162.972656 118.441406 162.867188 118.425781 162.753906 118.425781 C 161.859375 118.425781 160.984375 118.519531 160.140625 118.683594 L 155.132812 60.566406 C 146.617188 58.128906 136.40625 58.265625 126.253906 61.027344 C 113.496094 64.5 102.746094 71.582031 97.175781 80.101562 Z M 295.800781 211.375 L 234.398438 197.066406 L 234.117188 197.953125 L 233 196.949219 L 188.054688 208.792969 L 274.980469 232.988281 Z M 282.003906 229.960938 L 346.179688 200.089844 L 299.441406 211.855469 Z M 328.191406 124.378906 L 300.902344 208.441406 L 359.085938 193.796875 C 363.410156 182.84375 359.699219 170.582031 349.988281 163.890625 C 349.160156 163.28125 348.285156 162.746094 347.175781 162.167969 L 346.808594 161.980469 L 346.257812 161.324219 C 346.144531 161.183594 346.03125 161.039062 345.890625 160.902344 L 344.886719 159.890625 L 345.441406 158.582031 C 350.070312 147.660156 346.332031 134.84375 336.554688 128.109375 C 333.984375 126.316406 331.167969 125.085938 328.191406 124.378906 Z M 367.769531 234.613281 C 367.210938 238.277344 366.289062 242.0625 364.941406 246.203125 C 364.488281 247.539062 363.902344 248.699219 363.332031 249.828125 C 362.984375 250.519531 362.636719 251.199219 362.347656 251.898438 C 359.296875 259.027344 352.65625 266.808594 344.578125 272.726562 L 343.941406 273.1875 C 340.984375 275.300781 337.53125 277.238281 334.191406 278.667969 C 333.632812 278.929688 333.339844 279.039062 332.675781 279.285156 L 332.398438 279.386719 C 331.859375 279.597656 331.246094 279.8125 330.625 280.023438 C 330.128906 280.191406 329.625 280.367188 329.132812 280.558594 C 326.492188 281.523438 324.246094 281.976562 321.648438 282.507812 L 321.402344 282.554688 C 314.175781 284.113281 306.019531 284.003906 298.445312 282.246094 L 292.210938 280.445312 C 291.398438 280.1875 290.960938 279.925781 290.640625 279.738281 C 290.535156 279.671875 290.4375 279.605469 290.285156 279.546875 C 283.109375 276.683594 280.660156 274.898438 274.734375 270.574219 C 273.746094 269.859375 272.648438 268.785156 271.582031 267.75 C 271.171875 267.351562 270.660156 266.851562 270.195312 266.417969 C 269.738281 267.59375 269.222656 269.042969 268.996094 269.6875 C 268.804688 270.210938 268.667969 270.605469 268.609375 270.75 C 268.40625 271.265625 268.234375 271.574219 268.039062 271.917969 C 267.9375 272.101562 267.828125 272.292969 267.6875 272.609375 C 265.972656 276.367188 264.054688 279.273438 261.503906 282.746094 C 259.253906 285.890625 256.867188 288.578125 253.996094 291.175781 C 249.488281 295.308594 244.265625 298.847656 239.304688 301.121094 C 227.804688 306.449219 215.296875 308.445312 204.09375 306.738281 C 196.292969 305.585938 189.964844 303.621094 185.304688 300.898438 L 178.085938 296.71875 C 173.554688 293.804688 168.902344 289.609375 165.863281 285.714844 C 165.601562 285.375 165.261719 284.898438 164.878906 284.355469 C 164.460938 283.757812 163.695312 282.667969 163.011719 281.835938 L 162.824219 282.09375 C 161.015625 284.652344 158.851562 287.035156 155.816406 289.816406 C 155.359375 290.238281 154.933594 290.546875 154.527344 290.84375 C 154.316406 290.996094 154.085938 291.160156 153.824219 291.363281 C 149.855469 294.40625 144.980469 296.667969 139.707031 297.917969 C 137.804688 298.363281 136.628906 298.527344 135.929688 298.617188 C 135.855469 298.628906 135.785156 298.636719 135.722656 298.648438 C 135.691406 298.699219 135.65625 298.757812 135.621094 298.820312 C 135.25 299.464844 134.644531 300.507812 133.445312 302.167969 C 132.9375 308.882812 125.925781 320.25 114.8125 324.738281 C 112.007812 325.871094 108.660156 326.691406 104.847656 326.691406 C 97.351562 326.691406 88.054688 323.492188 77.582031 313.246094 L 76.082031 315.5 L 76.167969 312.480469 C 75.585938 312.550781 74.976562 312.683594 74.273438 312.886719 C 74.011719 312.960938 73.746094 313.039062 73.480469 313.109375 C 66.9375 314.824219 57.207031 312.839844 50.464844 310.117188 C 46.234375 308.375 40.84375 304.15625 38.070312 301.078125 L 37.945312 300.929688 L 33.253906 294.628906 C 29.429688 288.714844 27.449219 280.972656 27.597656 272.714844 C 27.597656 272.570312 27.574219 272.507812 27.574219 272.507812 C 27.492188 272.367188 26.964844 271.992188 26.578125 271.71875 C 25.921875 271.253906 25.101562 270.671875 24.140625 269.789062 L 23.984375 269.628906 L 17.359375 262.085938 C 15.941406 260.15625 13.984375 256.6875 13.285156 254.460938 L 13.0625 253.738281 C 12.273438 251.191406 11.59375 248.992188 11.066406 245.996094 C 10.011719 239.808594 11.113281 230.941406 13.632812 225.371094 C 17.054688 217.898438 19.601562 215.28125 21.289062 213.554688 C 21.550781 213.285156 21.777344 213.050781 21.96875 212.835938 C 21.765625 212.726562 21.550781 212.617188 21.398438 212.539062 C 20.953125 212.316406 20.546875 212.097656 20.238281 211.890625 C 18.933594 210.972656 17.757812 209.882812 16.710938 208.636719 C 10.199219 203.078125 6.472656 194.96875 6.472656 186.359375 C 6.472656 176.332031 11.492188 167.140625 19.917969 161.714844 C 20.46875 161.109375 21.109375 160.507812 21.828125 159.921875 C 22.4375 159.425781 22.75 159.257812 23.195312 159.03125 C 23.285156 158.984375 23.390625 158.929688 23.515625 158.863281 C 22.976562 147.5625 28.167969 134.308594 37.558594 123.152344 C 42.792969 116.933594 48.996094 111.808594 55.53125 108.289062 C 55.609375 108.125 55.695312 107.949219 55.789062 107.765625 C 57.621094 104.191406 59.914062 101.144531 62.609375 98.6875 C 66.398438 89.195312 74.808594 82.3125 84.761719 80.566406 C 87.261719 78.527344 90.421875 77.550781 93.617188 77.800781 C 99.746094 68.429688 111.410156 60.6875 125.144531 56.949219 C 136.09375 53.976562 147.1875 53.832031 156.46875 56.535156 C 156.992188 56.378906 157.792969 56.148438 159.148438 55.800781 C 159.925781 55.597656 160.753906 55.425781 161.652344 55.285156 C 171.648438 48.433594 184.980469 48.421875 195.003906 55.304688 C 195.421875 55.605469 195.898438 55.953125 196.398438 56.355469 C 206.046875 51.535156 217.382812 52.304688 226.277344 58.480469 C 228.222656 59.785156 230.015625 61.363281 231.605469 63.175781 L 231.699219 63.089844 L 231.722656 63.160156 C 240.953125 59.304688 251.5625 60.351562 259.820312 66.035156 C 264 68.945312 267.332031 72.824219 269.535156 77.316406 C 279.710938 76.28125 291.578125 79.101562 302.367188 85.15625 C 317.480469 93.628906 327.699219 106.621094 329.277344 118.972656 L 330.132812 118.394531 L 329.507812 120.320312 C 332.878906 121.164062 336.054688 122.613281 338.960938 124.636719 C 349.960938 132.214844 354.410156 146.390625 349.882812 158.828125 C 350.855469 159.363281 351.683594 159.890625 352.445312 160.457031 C 363.683594 168.199219 368.039062 182.441406 363.085938 195.195312 C 363.144531 196.355469 363.136719 197.511719 363.054688 198.710938 C 363.011719 199.480469 362.929688 200.015625 362.863281 200.4375 C 362.773438 201.046875 362.773438 201.046875 363.074219 201.78125 C 365.082031 206.484375 367.609375 213.734375 368.078125 218.601562 C 368.640625 224.597656 368.550781 229.234375 367.769531 234.613281 Z M 265.941406 136.4375 L 286.207031 139.957031 C 286.269531 138.953125 286.429688 137.976562 286.703125 137.042969 L 266.433594 133.527344 C 266.375 134.53125 266.210938 135.503906 265.941406 136.4375 Z M 176.042969 133.433594 L 239.71875 134.054688 C 239.671875 133.609375 239.648438 133.160156 239.648438 132.707031 C 239.648438 132.164062 239.691406 131.625 239.757812 131.097656 L 176.078125 130.472656 C 176.121094 130.917969 176.148438 131.367188 176.148438 131.820312 C 176.148438 132.363281 176.105469 132.902344 176.042969 133.433594 Z M 253.089844 146.851562 C 260.871094 146.851562 267.183594 140.535156 267.183594 132.699219 C 267.183594 124.921875 260.871094 118.609375 253.089844 118.609375 C 245.257812 118.609375 238.9375 124.921875 238.9375 132.699219 C 238.9375 140.535156 245.257812 146.851562 253.089844 146.851562 Z M 94.773438 154.550781 C 100.394531 154.550781 105 149.984375 105 144.367188 C 105 138.746094 100.394531 134.144531 94.773438 134.144531 C 89.15625 134.144531 84.550781 138.746094 84.550781 144.367188 C 84.550781 149.984375 89.15625 154.550781 94.773438 154.550781 Z M 94.773438 157.761719 C 102.167969 157.761719 108.210938 151.761719 108.210938 144.367188 C 108.210938 136.976562 102.167969 130.933594 94.773438 130.933594 C 87.382812 130.933594 81.382812 136.976562 81.382812 144.367188 C 81.382812 151.761719 87.382812 157.761719 94.773438 157.761719 Z M 162.761719 145.769531 C 155.089844 145.769531 148.804688 139.480469 148.804688 131.8125 C 148.804688 124.140625 155.089844 117.910156 162.761719 117.910156 C 170.433594 117.910156 176.664062 124.140625 176.664062 131.8125 C 176.664062 139.480469 170.433594 145.769531 162.761719 145.769531 " fill-opacity="1" fill-rule="nonzero"/></g></svg>