<?xml version="1.0" encoding="UTF-8" standalone="no"?><svg xmlns="http://www.w3.org/2000/svg" xmlns:xlink="http://www.w3.org/1999/xlink" width="500" zoomAndPan="magnify" viewBox="0 0 375 374.999991" height="500" preserveAspectRatio="xMidYMid meet" version="1.0"><path fill="#e8c187" d="M 213.269531 65.246094 C 212.617188 64.59375 212.617188 63.535156 213.269531 62.882812 C 213.925781 62.230469 214.984375 62.230469 215.636719 62.882812 L 374.226562 221.378906 C 374.878906 222.035156 374.878906 223.09375 374.226562 223.746094 C 373.574219 224.398438 372.515625 224.398438 371.859375 223.746094 Z M 213.269531 65.246094 " fill-opacity="1" fill-rule="nonzero"/><path fill="#e8c187" d="M 322.09375 131.375 C 322.09375 130.449219 322.84375 129.703125 323.765625 129.703125 C 324.691406 129.703125 325.4375 130.449219 325.4375 131.375 L 325.4375 173.3125 C 325.4375 174.234375 324.691406 174.984375 323.765625 174.984375 C 322.84375 174.984375 322.09375 174.234375 322.09375 173.3125 Z M 322.09375 131.375 " fill-opacity="1" fill-rule="nonzero"/><path fill="#e8c187" d="M 206.949219 16.988281 C 206.296875 16.335938 206.296875 15.277344 206.949219 14.625 C 207.601562 13.972656 208.664062 13.972656 209.316406 14.625 L 324.949219 130.191406 C 325.601562 130.84375 325.601562 131.902344 324.949219 132.554688 C 324.296875 133.207031 323.238281 133.207031 322.582031 132.554688 Z M 206.949219 16.988281 " fill-opacity="1" fill-rule="nonzero"/><path fill="#e8c187" d="M 293.765625 195.550781 C 293.113281 194.898438 293.113281 193.839844 293.765625 193.1875 C 294.421875 192.535156 295.480469 192.535156 296.132812 193.1875 L 374.214844 271.222656 C 374.863281 271.875 374.867188 272.933594 374.214844 273.585938 C 373.558594 274.238281 372.5 274.238281 371.847656 273.585938 Z M 293.765625 195.550781 " fill-opacity="1" fill-rule="nonzero"/><path fill="#e8c187" d="M 222.816406 156.367188 C 222.160156 155.714844 222.160156 154.65625 222.816406 154.003906 C 223.46875 153.347656 224.527344 153.347656 225.179688 154.003906 L 374.277344 303.011719 C 374.933594 303.667969 374.933594 304.726562 374.277344 305.378906 C 373.625 306.03125 372.566406 306.03125 371.910156 305.378906 Z M 222.816406 156.367188 " fill-opacity="1" fill-rule="nonzero"/><path fill="#e8c187" d="M 255.957031 156.113281 C 255.957031 155.191406 256.707031 154.441406 257.632812 154.441406 C 258.554688 154.441406 259.304688 155.191406 259.304688 156.113281 L 259.304688 188.796875 C 259.304688 189.722656 258.554688 190.472656 257.632812 190.472656 C 256.707031 190.472656 255.957031 189.722656 255.957031 188.796875 Z M 255.957031 156.113281 " fill-opacity="1" fill-rule="nonzero"/><path fill="#e8c187" d="M 170.386719 71.28125 C 169.734375 70.628906 169.734375 69.570312 170.386719 68.917969 C 171.039062 68.265625 172.097656 68.265625 172.753906 68.917969 L 258.816406 154.929688 C 259.46875 155.582031 259.46875 156.640625 258.816406 157.296875 C 258.164062 157.949219 257.101562 157.949219 256.449219 157.296875 Z M 170.386719 71.28125 " fill-opacity="1" fill-rule="nonzero"/><path fill="#e8c187" d="M 242.648438 119.5625 C 242.648438 118.640625 243.394531 117.890625 244.316406 117.890625 C 245.242188 117.890625 245.992188 118.640625 245.992188 119.5625 L 245.992188 142.808594 C 245.992188 143.730469 245.242188 144.476562 244.316406 144.476562 C 243.394531 144.476562 242.648438 143.730469 242.648438 142.808594 Z M 242.648438 119.5625 " fill-opacity="1" fill-rule="nonzero"/><path fill="#e8c187" d="M 219.808594 97.429688 C 219.152344 96.777344 219.152344 95.71875 219.808594 95.066406 C 220.460938 94.414062 221.519531 94.414062 222.175781 95.066406 L 245.503906 118.378906 C 246.15625 119.03125 246.15625 120.09375 245.503906 120.746094 C 244.847656 121.398438 243.789062 121.398438 243.136719 120.746094 Z M 219.808594 97.429688 " fill-opacity="1" fill-rule="nonzero"/><path fill="#e8c187" d="M 196.171875 153.15625 C 195.519531 152.503906 195.519531 151.441406 196.171875 150.789062 C 196.824219 150.136719 197.886719 150.136719 198.539062 150.789062 L 374.21875 326.367188 C 374.871094 327.023438 374.871094 328.082031 374.21875 328.734375 C 373.566406 329.386719 372.507812 329.386719 371.855469 328.734375 Z M 196.171875 153.15625 " fill-opacity="1" fill-rule="nonzero"/><path fill="#e8c187" d="M 233.398438 213.773438 C 232.746094 213.121094 232.746094 212.0625 233.398438 211.410156 C 234.050781 210.757812 235.109375 210.757812 235.765625 211.410156 L 374.246094 349.8125 C 374.902344 350.464844 374.902344 351.523438 374.246094 352.179688 C 373.59375 352.832031 372.535156 352.832031 371.882812 352.179688 Z M 233.398438 213.773438 " fill-opacity="1" fill-rule="nonzero"/><path fill="#e8c187" d="M 147.800781 159.574219 C 147.144531 158.921875 147.144531 157.863281 147.800781 157.210938 C 148.453125 156.558594 149.511719 156.558594 150.167969 157.210938 L 358.171875 365.09375 C 358.824219 365.75 358.824219 366.808594 358.171875 367.460938 C 357.519531 368.113281 356.460938 368.113281 355.804688 367.460938 Z M 147.800781 159.574219 " fill-opacity="1" fill-rule="nonzero"/><path fill="#e8c187" d="M 241.558594 285.273438 C 240.632812 285.273438 239.882812 284.523438 239.882812 283.597656 C 239.882812 282.675781 240.632812 281.929688 241.558594 281.929688 L 274.261719 281.929688 C 275.183594 281.929688 275.933594 282.675781 275.933594 283.597656 C 275.933594 284.523438 275.183594 285.273438 274.261719 285.273438 Z M 241.558594 285.273438 " fill-opacity="1" fill-rule="nonzero"/><path fill="#e8c187" d="M 210.992188 255.417969 C 210.335938 254.761719 210.335938 253.703125 210.992188 253.050781 C 211.644531 252.398438 212.703125 252.398438 213.355469 253.050781 L 242.738281 282.417969 C 243.394531 283.070312 243.394531 284.128906 242.738281 284.78125 C 242.085938 285.433594 241.027344 285.433594 240.371094 284.78125 Z M 210.992188 255.417969 " fill-opacity="1" fill-rule="nonzero"/><path fill="#e8c187" d="M 142.730469 225.972656 C 141.808594 225.972656 141.058594 225.222656 141.058594 224.300781 C 141.058594 223.378906 141.808594 222.628906 142.730469 222.628906 L 214.929688 222.628906 C 215.851562 222.628906 216.601562 223.378906 216.601562 224.300781 C 216.601562 225.222656 215.851562 225.972656 214.929688 225.972656 Z M 142.730469 225.972656 " fill-opacity="1" fill-rule="nonzero"/><path fill="#e8c187" d="M 103.207031 159.292969 C 102.554688 158.640625 102.554688 157.582031 103.207031 156.929688 C 103.863281 156.277344 104.921875 156.277344 105.574219 156.929688 L 171.804688 223.117188 C 172.457031 223.773438 172.457031 224.832031 171.804688 225.484375 C 171.148438 226.136719 170.089844 226.136719 169.4375 225.484375 Z M 103.207031 159.292969 " fill-opacity="1" fill-rule="nonzero"/><path fill="#e8c187" d="M 162.570312 148.320312 C 162.570312 147.398438 163.320312 146.648438 164.242188 146.648438 C 165.164062 146.648438 165.914062 147.398438 165.914062 148.320312 L 165.914062 173.644531 C 165.914062 174.566406 165.164062 175.316406 164.242188 175.316406 C 163.320312 175.316406 162.570312 174.566406 162.570312 173.644531 Z M 162.570312 148.320312 " fill-opacity="1" fill-rule="nonzero"/><path fill="#e8c187" d="M 96.832031 83.3125 C 96.179688 82.660156 96.179688 81.601562 96.832031 80.949219 C 97.484375 80.296875 98.542969 80.296875 99.195312 80.949219 L 165.425781 147.140625 C 166.078125 147.792969 166.078125 148.851562 165.425781 149.503906 C 164.773438 150.15625 163.710938 150.15625 163.058594 149.503906 Z M 96.832031 83.3125 " fill-opacity="1" fill-rule="nonzero"/><path fill="#e8c187" d="M 108.433594 192.390625 C 107.78125 191.738281 107.78125 190.675781 108.433594 190.023438 C 109.085938 189.371094 110.148438 189.371094 110.800781 190.023438 L 143.914062 223.117188 C 144.566406 223.773438 144.566406 224.832031 143.914062 225.484375 C 143.261719 226.136719 142.203125 226.136719 141.546875 225.484375 Z M 108.433594 192.390625 " fill-opacity="1" fill-rule="nonzero"/><path fill="#e8c187" d="M 161.925781 256.5 C 161.273438 255.847656 161.273438 254.789062 161.925781 254.136719 C 162.578125 253.484375 163.640625 253.484375 164.292969 254.136719 L 275.324219 365.105469 C 275.976562 365.753906 275.976562 366.816406 275.324219 367.46875 C 274.671875 368.121094 273.613281 368.121094 272.957031 367.46875 Z M 161.925781 256.5 " fill-opacity="1" fill-rule="nonzero"/><path fill="#e8c187" d="M 113.019531 256.988281 C 112.09375 256.988281 111.347656 256.242188 111.347656 255.316406 C 111.347656 254.394531 112.09375 253.648438 113.019531 253.648438 L 163.109375 253.648438 C 164.035156 253.648438 164.78125 254.394531 164.78125 255.316406 C 164.78125 256.242188 164.035156 256.988281 163.109375 256.988281 Z M 113.019531 256.988281 " fill-opacity="1" fill-rule="nonzero"/><path fill="#e8c187" d="M 8.050781 152.777344 C 7.398438 152.125 7.398438 151.0625 8.050781 150.410156 C 8.707031 149.757812 9.765625 149.757812 10.417969 150.410156 L 114.203125 254.136719 C 114.855469 254.789062 114.855469 255.847656 114.203125 256.5 C 113.550781 257.152344 112.488281 257.152344 111.835938 256.5 Z M 8.050781 152.777344 " fill-opacity="1" fill-rule="nonzero"/><path fill="#e8c187" d="M 83.246094 182.460938 C 83.246094 181.539062 83.996094 180.789062 84.921875 180.789062 C 85.84375 180.789062 86.59375 181.539062 86.59375 182.460938 L 86.59375 227.234375 C 86.59375 228.160156 85.84375 228.90625 84.921875 228.90625 C 83.996094 228.90625 83.246094 228.160156 83.246094 227.234375 Z M 83.246094 182.460938 " fill-opacity="1" fill-rule="nonzero"/><path fill="#e8c187" d="M 50.625 150.550781 C 49.96875 149.894531 49.96875 148.835938 50.625 148.183594 C 51.277344 147.53125 52.335938 147.53125 52.988281 148.183594 L 86.101562 181.28125 C 86.757812 181.933594 86.757812 182.992188 86.101562 183.644531 C 85.449219 184.296875 84.390625 184.296875 83.738281 183.644531 Z M 50.625 150.550781 " fill-opacity="1" fill-rule="nonzero"/><path fill="#e8c187" d="M 191.59375 318.253906 C 190.9375 317.601562 190.9375 316.542969 191.59375 315.886719 C 192.246094 315.238281 193.304688 315.238281 193.960938 315.886719 L 243.226562 365.128906 C 243.878906 365.78125 243.878906 366.839844 243.226562 367.492188 C 242.574219 368.144531 241.515625 368.144531 240.859375 367.492188 Z M 191.59375 318.253906 " fill-opacity="1" fill-rule="nonzero"/><path fill="#e8c187" d="M 162.714844 318.742188 C 161.792969 318.742188 161.042969 317.992188 161.042969 317.070312 C 161.042969 316.148438 161.792969 315.398438 162.714844 315.398438 L 192.777344 315.398438 C 193.699219 315.398438 194.449219 316.148438 194.449219 317.070312 C 194.449219 317.992188 193.699219 318.742188 192.777344 318.742188 Z M 162.714844 318.742188 " fill-opacity="1" fill-rule="nonzero"/><path fill="#e8c187" d="M 120.4375 277.179688 C 119.78125 276.527344 119.78125 275.46875 120.4375 274.816406 C 121.089844 274.164062 122.148438 274.164062 122.800781 274.816406 L 163.898438 315.886719 C 164.550781 316.542969 164.550781 317.601562 163.898438 318.253906 C 163.246094 318.90625 162.183594 318.90625 161.535156 318.253906 Z M 120.4375 277.179688 " fill-opacity="1" fill-rule="nonzero"/><path fill="#e8c187" d="M 124.429688 270.824219 C 124.691406 271.085938 124.925781 271.371094 125.132812 271.679688 C 125.335938 271.988281 125.511719 272.3125 125.652344 272.65625 C 125.796875 272.996094 125.902344 273.351562 125.972656 273.714844 C 126.046875 274.078125 126.082031 274.445312 126.082031 274.816406 C 126.082031 275.1875 126.046875 275.550781 125.972656 275.917969 C 125.902344 276.28125 125.796875 276.632812 125.652344 276.976562 C 125.511719 277.316406 125.335938 277.644531 125.132812 277.949219 C 124.925781 278.257812 124.691406 278.542969 124.429688 278.804688 C 124.167969 279.066406 123.882812 279.300781 123.574219 279.507812 C 123.265625 279.714844 122.9375 279.886719 122.597656 280.03125 C 122.253906 280.171875 121.902344 280.277344 121.539062 280.351562 C 121.171875 280.421875 120.804688 280.460938 120.4375 280.460938 C 120.066406 280.460938 119.699219 280.421875 119.332031 280.351562 C 118.96875 280.277344 118.617188 280.171875 118.273438 280.03125 C 117.933594 279.886719 117.605469 279.714844 117.296875 279.507812 C 116.988281 279.300781 116.703125 279.066406 116.441406 278.804688 C 116.179688 278.542969 115.945312 278.257812 115.738281 277.949219 C 115.535156 277.644531 115.359375 277.316406 115.21875 276.976562 C 115.078125 276.632812 114.96875 276.28125 114.898438 275.917969 C 114.824219 275.550781 114.789062 275.1875 114.789062 274.816406 C 114.789062 274.445312 114.824219 274.078125 114.898438 273.714844 C 114.96875 273.351562 115.078125 272.996094 115.21875 272.65625 C 115.359375 272.3125 115.535156 271.988281 115.738281 271.679688 C 115.945312 271.371094 116.179688 271.085938 116.441406 270.824219 C 116.703125 270.5625 116.988281 270.328125 117.296875 270.121094 C 117.605469 269.917969 117.933594 269.742188 118.273438 269.601562 C 118.617188 269.457031 118.96875 269.351562 119.332031 269.28125 C 119.699219 269.207031 120.066406 269.171875 120.4375 269.171875 C 120.804688 269.171875 121.171875 269.207031 121.539062 269.28125 C 121.902344 269.351562 122.253906 269.457031 122.597656 269.601562 C 122.9375 269.742188 123.265625 269.917969 123.574219 270.121094 C 123.882812 270.328125 124.167969 270.5625 124.429688 270.824219 Z M 124.429688 270.824219 " fill-opacity="1" fill-rule="nonzero"/><path fill="#e8c187" d="M 112.425781 186.035156 C 112.691406 186.296875 112.921875 186.582031 113.128906 186.890625 C 113.335938 187.195312 113.507812 187.523438 113.652344 187.863281 C 113.792969 188.207031 113.902344 188.558594 113.972656 188.921875 C 114.046875 189.285156 114.082031 189.652344 114.082031 190.023438 C 114.082031 190.394531 114.046875 190.761719 113.972656 191.125 C 113.902344 191.488281 113.792969 191.84375 113.652344 192.183594 C 113.507812 192.527344 113.335938 192.851562 113.128906 193.160156 C 112.921875 193.46875 112.691406 193.753906 112.425781 194.015625 C 112.164062 194.277344 111.878906 194.511719 111.570312 194.71875 C 111.261719 194.921875 110.9375 195.097656 110.59375 195.238281 C 110.253906 195.378906 109.898438 195.488281 109.535156 195.558594 C 109.171875 195.632812 108.804688 195.667969 108.433594 195.667969 C 108.0625 195.667969 107.695312 195.632812 107.332031 195.558594 C 106.96875 195.488281 106.617188 195.378906 106.273438 195.238281 C 105.929688 195.097656 105.605469 194.921875 105.296875 194.71875 C 104.988281 194.511719 104.703125 194.277344 104.441406 194.015625 C 104.179688 193.753906 103.945312 193.46875 103.738281 193.160156 C 103.53125 192.851562 103.359375 192.527344 103.214844 192.183594 C 103.074219 191.84375 102.96875 191.488281 102.894531 191.125 C 102.824219 190.761719 102.785156 190.394531 102.785156 190.023438 C 102.785156 189.652344 102.824219 189.285156 102.894531 188.921875 C 102.96875 188.558594 103.074219 188.207031 103.214844 187.863281 C 103.359375 187.523438 103.53125 187.195312 103.738281 186.890625 C 103.945312 186.582031 104.179688 186.296875 104.441406 186.035156 C 104.703125 185.769531 104.988281 185.539062 105.296875 185.332031 C 105.605469 185.125 105.929688 184.953125 106.273438 184.808594 C 106.617188 184.667969 106.96875 184.5625 107.332031 184.488281 C 107.695312 184.417969 108.0625 184.378906 108.433594 184.378906 C 108.804688 184.378906 109.171875 184.417969 109.535156 184.488281 C 109.898438 184.5625 110.253906 184.667969 110.59375 184.808594 C 110.9375 184.953125 111.261719 185.125 111.570312 185.332031 C 111.878906 185.539062 112.164062 185.769531 112.425781 186.035156 Z M 112.425781 186.035156 " fill-opacity="1" fill-rule="nonzero"/><path fill="#e8c187" d="M 214.984375 249.058594 C 215.246094 249.320312 215.480469 249.605469 215.6875 249.914062 C 215.894531 250.222656 216.066406 250.550781 216.207031 250.890625 C 216.351562 251.234375 216.457031 251.585938 216.53125 251.949219 C 216.601562 252.3125 216.636719 252.679688 216.636719 253.050781 C 216.636719 253.421875 216.601562 253.789062 216.53125 254.152344 C 216.457031 254.515625 216.351562 254.867188 216.207031 255.210938 C 216.066406 255.554688 215.894531 255.878906 215.6875 256.1875 C 215.480469 256.496094 215.246094 256.78125 214.984375 257.042969 C 214.722656 257.304688 214.4375 257.539062 214.128906 257.742188 C 213.820312 257.949219 213.496094 258.125 213.152344 258.265625 C 212.808594 258.40625 212.457031 258.515625 212.09375 258.585938 C 211.730469 258.660156 211.363281 258.695312 210.992188 258.695312 C 210.621094 258.695312 210.253906 258.660156 209.890625 258.585938 C 209.527344 258.515625 209.171875 258.40625 208.828125 258.265625 C 208.488281 258.125 208.160156 257.949219 207.851562 257.742188 C 207.546875 257.539062 207.261719 257.304688 206.996094 257.042969 C 206.734375 256.78125 206.5 256.496094 206.296875 256.1875 C 206.089844 255.878906 205.914062 255.554688 205.773438 255.210938 C 205.632812 254.867188 205.523438 254.515625 205.453125 254.152344 C 205.378906 253.789062 205.34375 253.421875 205.34375 253.050781 C 205.34375 252.679688 205.378906 252.3125 205.453125 251.949219 C 205.523438 251.585938 205.632812 251.234375 205.773438 250.890625 C 205.914062 250.550781 206.089844 250.222656 206.296875 249.914062 C 206.5 249.605469 206.734375 249.320312 206.996094 249.058594 C 207.261719 248.796875 207.546875 248.5625 207.851562 248.359375 C 208.160156 248.152344 208.488281 247.976562 208.828125 247.835938 C 209.171875 247.695312 209.527344 247.585938 209.890625 247.515625 C 210.253906 247.441406 210.621094 247.40625 210.992188 247.40625 C 211.363281 247.40625 211.730469 247.441406 212.09375 247.515625 C 212.457031 247.585938 212.808594 247.695312 213.152344 247.835938 C 213.496094 247.976562 213.820312 248.152344 214.128906 248.359375 C 214.4375 248.5625 214.722656 248.796875 214.984375 249.058594 Z M 214.984375 249.058594 " fill-opacity="1" fill-rule="nonzero"/><path fill="#e8c187" d="M 12.046875 146.421875 C 12.308594 146.683594 12.542969 146.96875 12.746094 147.277344 C 12.953125 147.585938 13.128906 147.910156 13.269531 148.253906 C 13.410156 148.59375 13.519531 148.949219 13.589844 149.3125 C 13.664062 149.675781 13.699219 150.042969 13.699219 150.414062 C 13.699219 150.78125 13.664062 151.148438 13.589844 151.511719 C 13.519531 151.875 13.410156 152.230469 13.269531 152.570312 C 13.128906 152.914062 12.953125 153.238281 12.746094 153.546875 C 12.542969 153.855469 12.308594 154.140625 12.046875 154.402344 C 11.78125 154.664062 11.496094 154.898438 11.191406 155.105469 C 10.882812 155.3125 10.554688 155.484375 10.214844 155.625 C 9.871094 155.769531 9.515625 155.875 9.152344 155.949219 C 8.789062 156.019531 8.421875 156.054688 8.050781 156.054688 C 7.679688 156.054688 7.3125 156.019531 6.949219 155.949219 C 6.585938 155.875 6.234375 155.769531 5.890625 155.625 C 5.546875 155.484375 5.222656 155.3125 4.914062 155.105469 C 4.605469 154.898438 4.320312 154.664062 4.058594 154.402344 C 3.796875 154.140625 3.5625 153.855469 3.355469 153.546875 C 3.148438 153.238281 2.976562 152.914062 2.835938 152.570312 C 2.691406 152.230469 2.585938 151.875 2.511719 151.511719 C 2.441406 151.148438 2.40625 150.78125 2.40625 150.414062 C 2.40625 150.042969 2.441406 149.675781 2.511719 149.3125 C 2.585938 148.949219 2.691406 148.59375 2.835938 148.253906 C 2.976562 147.910156 3.148438 147.585938 3.355469 147.277344 C 3.5625 146.96875 3.796875 146.683594 4.058594 146.421875 C 4.320312 146.160156 4.605469 145.925781 4.914062 145.71875 C 5.222656 145.511719 5.546875 145.339844 5.890625 145.199219 C 6.234375 145.054688 6.585938 144.949219 6.949219 144.875 C 7.3125 144.804688 7.679688 144.769531 8.050781 144.769531 C 8.421875 144.769531 8.789062 144.804688 9.152344 144.875 C 9.515625 144.949219 9.871094 145.054688 10.214844 145.199219 C 10.554688 145.339844 10.882812 145.511719 11.191406 145.71875 C 11.496094 145.925781 11.78125 146.160156 12.046875 146.421875 Z M 12.046875 146.421875 " fill-opacity="1" fill-rule="nonzero"/><path fill="#e8c187" d="M 54.617188 144.191406 C 54.878906 144.457031 55.113281 144.742188 55.320312 145.046875 C 55.523438 145.355469 55.699219 145.683594 55.839844 146.023438 C 55.980469 146.367188 56.089844 146.71875 56.160156 147.082031 C 56.234375 147.445312 56.269531 147.8125 56.269531 148.183594 C 56.269531 148.554688 56.234375 148.921875 56.160156 149.285156 C 56.089844 149.648438 55.980469 150 55.839844 150.34375 C 55.699219 150.6875 55.523438 151.011719 55.320312 151.320312 C 55.113281 151.628906 54.878906 151.914062 54.617188 152.175781 C 54.355469 152.4375 54.070312 152.671875 53.761719 152.878906 C 53.453125 153.082031 53.125 153.257812 52.785156 153.398438 C 52.441406 153.539062 52.089844 153.648438 51.722656 153.71875 C 51.359375 153.792969 50.992188 153.828125 50.621094 153.828125 C 50.25 153.828125 49.882812 153.792969 49.519531 153.71875 C 49.15625 153.648438 48.804688 153.539062 48.460938 153.398438 C 48.117188 153.257812 47.792969 153.082031 47.484375 152.878906 C 47.175781 152.671875 46.890625 152.4375 46.628906 152.175781 C 46.367188 151.914062 46.132812 151.628906 45.925781 151.320312 C 45.722656 151.011719 45.546875 150.6875 45.40625 150.34375 C 45.261719 150 45.15625 149.648438 45.082031 149.285156 C 45.011719 148.921875 44.976562 148.554688 44.976562 148.183594 C 44.976562 147.8125 45.011719 147.445312 45.082031 147.082031 C 45.15625 146.71875 45.261719 146.367188 45.40625 146.023438 C 45.546875 145.683594 45.722656 145.355469 45.925781 145.046875 C 46.132812 144.742188 46.367188 144.457031 46.628906 144.191406 C 46.890625 143.929688 47.175781 143.699219 47.484375 143.492188 C 47.792969 143.285156 48.117188 143.113281 48.460938 142.96875 C 48.804688 142.828125 49.15625 142.722656 49.519531 142.648438 C 49.882812 142.578125 50.25 142.539062 50.621094 142.539062 C 50.992188 142.539062 51.359375 142.578125 51.722656 142.648438 C 52.089844 142.722656 52.441406 142.828125 52.785156 142.96875 C 53.125 143.113281 53.453125 143.285156 53.761719 143.492188 C 54.070312 143.699219 54.355469 143.929688 54.617188 144.191406 Z M 54.617188 144.191406 " fill-opacity="1" fill-rule="nonzero"/><path fill="#e8c187" d="M 107.203125 152.9375 C 107.464844 153.199219 107.699219 153.484375 107.902344 153.792969 C 108.109375 154.101562 108.285156 154.425781 108.425781 154.769531 C 108.566406 155.113281 108.675781 155.464844 108.746094 155.828125 C 108.820312 156.191406 108.855469 156.558594 108.855469 156.929688 C 108.855469 157.300781 108.820312 157.667969 108.746094 158.03125 C 108.675781 158.394531 108.566406 158.746094 108.425781 159.089844 C 108.285156 159.429688 108.109375 159.757812 107.902344 160.066406 C 107.699219 160.375 107.464844 160.660156 107.203125 160.921875 C 106.9375 161.183594 106.652344 161.417969 106.347656 161.621094 C 106.039062 161.828125 105.710938 162.003906 105.371094 162.144531 C 105.027344 162.285156 104.671875 162.394531 104.308594 162.464844 C 103.945312 162.539062 103.578125 162.574219 103.207031 162.574219 C 102.835938 162.574219 102.46875 162.539062 102.105469 162.464844 C 101.742188 162.394531 101.390625 162.285156 101.046875 162.144531 C 100.703125 162.003906 100.378906 161.828125 100.070312 161.621094 C 99.761719 161.417969 99.476562 161.183594 99.214844 160.921875 C 98.953125 160.660156 98.71875 160.375 98.511719 160.066406 C 98.304688 159.757812 98.132812 159.429688 97.992188 159.089844 C 97.847656 158.746094 97.742188 158.394531 97.667969 158.03125 C 97.597656 157.667969 97.5625 157.300781 97.5625 156.929688 C 97.5625 156.558594 97.597656 156.191406 97.667969 155.828125 C 97.742188 155.464844 97.847656 155.113281 97.992188 154.769531 C 98.132812 154.425781 98.304688 154.101562 98.511719 153.792969 C 98.71875 153.484375 98.953125 153.199219 99.214844 152.9375 C 99.476562 152.675781 99.761719 152.441406 100.070312 152.238281 C 100.378906 152.03125 100.703125 151.855469 101.046875 151.714844 C 101.390625 151.574219 101.742188 151.464844 102.105469 151.394531 C 102.46875 151.320312 102.835938 151.285156 103.207031 151.285156 C 103.578125 151.285156 103.945312 151.320312 104.308594 151.394531 C 104.671875 151.464844 105.027344 151.574219 105.371094 151.714844 C 105.710938 151.855469 106.039062 152.03125 106.347656 152.238281 C 106.652344 152.441406 106.9375 152.675781 107.203125 152.9375 Z M 107.203125 152.9375 " fill-opacity="1" fill-rule="nonzero"/><path fill="#e8c187" d="M 151.792969 153.21875 C 152.054688 153.480469 152.289062 153.765625 152.496094 154.074219 C 152.703125 154.382812 152.875 154.707031 153.019531 155.050781 C 153.160156 155.394531 153.265625 155.746094 153.339844 156.109375 C 153.410156 156.472656 153.449219 156.839844 153.449219 157.210938 C 153.449219 157.582031 153.410156 157.949219 153.339844 158.3125 C 153.265625 158.675781 153.160156 159.027344 153.019531 159.371094 C 152.875 159.714844 152.703125 160.039062 152.496094 160.347656 C 152.289062 160.65625 152.054688 160.941406 151.792969 161.203125 C 151.53125 161.464844 151.246094 161.699219 150.9375 161.902344 C 150.628906 162.109375 150.304688 162.285156 149.960938 162.425781 C 149.617188 162.566406 149.265625 162.675781 148.902344 162.746094 C 148.539062 162.820312 148.171875 162.855469 147.800781 162.855469 C 147.429688 162.855469 147.0625 162.820312 146.699219 162.746094 C 146.335938 162.675781 145.980469 162.566406 145.640625 162.425781 C 145.296875 162.285156 144.972656 162.109375 144.664062 161.902344 C 144.355469 161.699219 144.070312 161.464844 143.808594 161.203125 C 143.542969 160.941406 143.3125 160.65625 143.105469 160.347656 C 142.898438 160.039062 142.722656 159.714844 142.582031 159.371094 C 142.441406 159.027344 142.332031 158.675781 142.261719 158.3125 C 142.1875 157.949219 142.152344 157.582031 142.152344 157.210938 C 142.152344 156.839844 142.1875 156.472656 142.261719 156.109375 C 142.332031 155.746094 142.441406 155.394531 142.582031 155.050781 C 142.722656 154.707031 142.898438 154.382812 143.105469 154.074219 C 143.3125 153.765625 143.542969 153.480469 143.808594 153.21875 C 144.070312 152.957031 144.355469 152.722656 144.664062 152.519531 C 144.972656 152.3125 145.296875 152.136719 145.640625 151.996094 C 145.980469 151.855469 146.335938 151.746094 146.699219 151.675781 C 147.0625 151.601562 147.429688 151.566406 147.800781 151.566406 C 148.171875 151.566406 148.539062 151.601562 148.902344 151.675781 C 149.265625 151.746094 149.617188 151.855469 149.960938 151.996094 C 150.304688 152.136719 150.628906 152.3125 150.9375 152.519531 C 151.246094 152.722656 151.53125 152.957031 151.792969 153.21875 Z M 151.792969 153.21875 " fill-opacity="1" fill-rule="nonzero"/><path fill="#e8c187" d="M 100.824219 76.957031 C 101.085938 77.21875 101.320312 77.503906 101.527344 77.8125 C 101.734375 78.121094 101.90625 78.445312 102.046875 78.789062 C 102.191406 79.132812 102.296875 79.484375 102.371094 79.847656 C 102.441406 80.210938 102.476562 80.578125 102.476562 80.949219 C 102.476562 81.320312 102.441406 81.6875 102.371094 82.050781 C 102.296875 82.414062 102.191406 82.765625 102.046875 83.109375 C 101.90625 83.453125 101.734375 83.777344 101.527344 84.085938 C 101.320312 84.394531 101.085938 84.679688 100.824219 84.941406 C 100.5625 85.203125 100.277344 85.4375 99.96875 85.640625 C 99.660156 85.847656 99.335938 86.023438 98.992188 86.164062 C 98.648438 86.304688 98.296875 86.414062 97.933594 86.484375 C 97.570312 86.558594 97.203125 86.59375 96.832031 86.59375 C 96.460938 86.59375 96.09375 86.558594 95.730469 86.484375 C 95.367188 86.414062 95.011719 86.304688 94.667969 86.164062 C 94.328125 86.023438 94 85.847656 93.691406 85.640625 C 93.386719 85.4375 93.101562 85.203125 92.835938 84.941406 C 92.574219 84.679688 92.339844 84.394531 92.136719 84.085938 C 91.929688 83.777344 91.753906 83.453125 91.613281 83.109375 C 91.472656 82.765625 91.363281 82.414062 91.292969 82.050781 C 91.21875 81.6875 91.183594 81.320312 91.183594 80.949219 C 91.183594 80.578125 91.21875 80.210938 91.292969 79.847656 C 91.363281 79.484375 91.472656 79.132812 91.613281 78.789062 C 91.753906 78.445312 91.929688 78.121094 92.136719 77.8125 C 92.339844 77.503906 92.574219 77.21875 92.835938 76.957031 C 93.101562 76.695312 93.386719 76.460938 93.691406 76.257812 C 94 76.050781 94.328125 75.875 94.667969 75.734375 C 95.011719 75.59375 95.367188 75.484375 95.730469 75.414062 C 96.09375 75.339844 96.460938 75.304688 96.832031 75.304688 C 97.203125 75.304688 97.570312 75.339844 97.933594 75.414062 C 98.296875 75.484375 98.648438 75.59375 98.992188 75.734375 C 99.335938 75.875 99.660156 76.050781 99.96875 76.257812 C 100.277344 76.460938 100.5625 76.695312 100.824219 76.957031 Z M 100.824219 76.957031 " fill-opacity="1" fill-rule="nonzero"/><path fill="#e8c187" d="M 237.390625 207.417969 C 237.652344 207.679688 237.886719 207.964844 238.09375 208.273438 C 238.300781 208.582031 238.472656 208.90625 238.617188 209.25 C 238.757812 209.59375 238.863281 209.945312 238.9375 210.308594 C 239.007812 210.671875 239.046875 211.039062 239.046875 211.410156 C 239.046875 211.78125 239.007812 212.148438 238.9375 212.511719 C 238.863281 212.875 238.757812 213.226562 238.617188 213.570312 C 238.472656 213.914062 238.300781 214.238281 238.09375 214.546875 C 237.886719 214.855469 237.652344 215.140625 237.390625 215.402344 C 237.128906 215.664062 236.84375 215.898438 236.535156 216.101562 C 236.226562 216.308594 235.902344 216.484375 235.558594 216.625 C 235.214844 216.765625 234.863281 216.875 234.5 216.945312 C 234.136719 217.019531 233.769531 217.054688 233.398438 217.054688 C 233.027344 217.054688 232.660156 217.019531 232.296875 216.945312 C 231.933594 216.875 231.578125 216.765625 231.238281 216.625 C 230.894531 216.484375 230.570312 216.308594 230.261719 216.101562 C 229.953125 215.898438 229.667969 215.664062 229.40625 215.402344 C 229.144531 215.140625 228.910156 214.855469 228.703125 214.546875 C 228.496094 214.238281 228.324219 213.914062 228.179688 213.570312 C 228.039062 213.226562 227.929688 212.875 227.859375 212.511719 C 227.785156 212.148438 227.75 211.78125 227.75 211.410156 C 227.75 211.039062 227.785156 210.671875 227.859375 210.308594 C 227.929688 209.945312 228.039062 209.59375 228.179688 209.25 C 228.324219 208.90625 228.496094 208.582031 228.703125 208.273438 C 228.910156 207.964844 229.144531 207.679688 229.40625 207.417969 C 229.667969 207.15625 229.953125 206.921875 230.261719 206.71875 C 230.570312 206.511719 230.894531 206.335938 231.238281 206.195312 C 231.578125 206.054688 231.933594 205.945312 232.296875 205.875 C 232.660156 205.800781 233.027344 205.765625 233.398438 205.765625 C 233.769531 205.765625 234.136719 205.800781 234.5 205.875 C 234.863281 205.945312 235.214844 206.054688 235.558594 206.195312 C 235.902344 206.335938 236.226562 206.511719 236.535156 206.71875 C 236.84375 206.921875 237.128906 207.15625 237.390625 207.417969 Z M 237.390625 207.417969 " fill-opacity="1" fill-rule="nonzero"/><path fill="#e8c187" d="M 200.167969 146.800781 C 200.429688 147.0625 200.664062 147.347656 200.871094 147.65625 C 201.074219 147.960938 201.25 148.289062 201.390625 148.628906 C 201.535156 148.972656 201.640625 149.324219 201.710938 149.6875 C 201.785156 150.050781 201.820312 150.417969 201.820312 150.789062 C 201.820312 151.160156 201.785156 151.527344 201.710938 151.890625 C 201.640625 152.253906 201.535156 152.609375 201.390625 152.949219 C 201.25 153.292969 201.074219 153.617188 200.871094 153.925781 C 200.664062 154.234375 200.429688 154.519531 200.167969 154.78125 C 199.90625 155.042969 199.621094 155.277344 199.3125 155.484375 C 199.003906 155.6875 198.675781 155.863281 198.335938 156.003906 C 197.992188 156.148438 197.640625 156.253906 197.277344 156.324219 C 196.910156 156.398438 196.542969 156.433594 196.175781 156.433594 C 195.804688 156.433594 195.4375 156.398438 195.070312 156.324219 C 194.707031 156.253906 194.355469 156.148438 194.011719 156.003906 C 193.671875 155.863281 193.34375 155.6875 193.035156 155.484375 C 192.726562 155.277344 192.441406 155.042969 192.179688 154.78125 C 191.917969 154.519531 191.683594 154.234375 191.476562 153.925781 C 191.273438 153.617188 191.097656 153.292969 190.957031 152.949219 C 190.8125 152.609375 190.707031 152.253906 190.636719 151.890625 C 190.5625 151.527344 190.527344 151.160156 190.527344 150.789062 C 190.527344 150.417969 190.5625 150.050781 190.636719 149.6875 C 190.707031 149.324219 190.8125 148.972656 190.957031 148.628906 C 191.097656 148.289062 191.273438 147.960938 191.476562 147.65625 C 191.683594 147.347656 191.917969 147.0625 192.179688 146.800781 C 192.441406 146.539062 192.726562 146.304688 193.035156 146.097656 C 193.34375 145.890625 193.671875 145.71875 194.011719 145.574219 C 194.355469 145.433594 194.707031 145.328125 195.070312 145.253906 C 195.4375 145.183594 195.804688 145.144531 196.175781 145.144531 C 196.542969 145.144531 196.910156 145.183594 197.277344 145.253906 C 197.640625 145.328125 197.992188 145.433594 198.335938 145.574219 C 198.675781 145.71875 199.003906 145.890625 199.3125 146.097656 C 199.621094 146.304688 199.90625 146.539062 200.167969 146.800781 Z M 200.167969 146.800781 " fill-opacity="1" fill-rule="nonzero"/><path fill="#e8c187" d="M 226.808594 150.011719 C 227.070312 150.273438 227.304688 150.558594 227.511719 150.867188 C 227.71875 151.175781 227.890625 151.5 228.03125 151.84375 C 228.175781 152.183594 228.28125 152.539062 228.355469 152.902344 C 228.425781 153.265625 228.460938 153.632812 228.460938 154.003906 C 228.460938 154.371094 228.425781 154.738281 228.355469 155.101562 C 228.28125 155.464844 228.175781 155.820312 228.03125 156.160156 C 227.890625 156.503906 227.71875 156.828125 227.511719 157.136719 C 227.304688 157.445312 227.070312 157.730469 226.808594 157.992188 C 226.546875 158.253906 226.261719 158.488281 225.953125 158.695312 C 225.644531 158.902344 225.320312 159.074219 224.976562 159.214844 C 224.632812 159.359375 224.28125 159.464844 223.917969 159.539062 C 223.554688 159.609375 223.1875 159.644531 222.816406 159.644531 C 222.445312 159.644531 222.078125 159.609375 221.714844 159.539062 C 221.351562 159.464844 220.996094 159.359375 220.652344 159.214844 C 220.3125 159.074219 219.984375 158.902344 219.679688 158.695312 C 219.371094 158.488281 219.085938 158.253906 218.820312 157.992188 C 218.558594 157.730469 218.324219 157.445312 218.121094 157.136719 C 217.914062 156.828125 217.738281 156.503906 217.597656 156.160156 C 217.457031 155.820312 217.347656 155.464844 217.277344 155.101562 C 217.203125 154.738281 217.167969 154.371094 217.167969 154.003906 C 217.167969 153.632812 217.203125 153.265625 217.277344 152.902344 C 217.347656 152.539062 217.457031 152.183594 217.597656 151.84375 C 217.738281 151.5 217.914062 151.175781 218.121094 150.867188 C 218.324219 150.558594 218.558594 150.273438 218.820312 150.011719 C 219.085938 149.75 219.371094 149.515625 219.679688 149.308594 C 219.984375 149.101562 220.3125 148.929688 220.652344 148.789062 C 220.996094 148.644531 221.351562 148.539062 221.714844 148.464844 C 222.078125 148.394531 222.445312 148.359375 222.816406 148.359375 C 223.1875 148.359375 223.554688 148.394531 223.917969 148.464844 C 224.28125 148.539062 224.632812 148.644531 224.976562 148.789062 C 225.320312 148.929688 225.644531 149.101562 225.953125 149.308594 C 226.261719 149.515625 226.546875 149.75 226.808594 150.011719 Z M 226.808594 150.011719 " fill-opacity="1" fill-rule="nonzero"/><path fill="#e8c187" d="M 223.800781 91.074219 C 224.0625 91.335938 224.296875 91.621094 224.503906 91.929688 C 224.710938 92.238281 224.882812 92.5625 225.023438 92.90625 C 225.167969 93.246094 225.273438 93.601562 225.347656 93.964844 C 225.417969 94.328125 225.453125 94.695312 225.453125 95.066406 C 225.453125 95.4375 225.417969 95.804688 225.347656 96.167969 C 225.273438 96.53125 225.167969 96.882812 225.023438 97.226562 C 224.882812 97.566406 224.710938 97.894531 224.503906 98.199219 C 224.296875 98.507812 224.0625 98.792969 223.800781 99.054688 C 223.539062 99.320312 223.253906 99.550781 222.945312 99.757812 C 222.636719 99.964844 222.3125 100.136719 221.96875 100.28125 C 221.625 100.421875 221.273438 100.527344 220.910156 100.601562 C 220.546875 100.671875 220.179688 100.710938 219.808594 100.710938 C 219.4375 100.710938 219.070312 100.671875 218.707031 100.601562 C 218.34375 100.527344 217.988281 100.421875 217.644531 100.28125 C 217.304688 100.136719 216.976562 99.964844 216.671875 99.757812 C 216.363281 99.550781 216.078125 99.320312 215.8125 99.054688 C 215.550781 98.792969 215.316406 98.507812 215.113281 98.199219 C 214.90625 97.894531 214.730469 97.566406 214.589844 97.226562 C 214.449219 96.882812 214.339844 96.53125 214.269531 96.167969 C 214.195312 95.804688 214.160156 95.4375 214.160156 95.066406 C 214.160156 94.695312 214.195312 94.328125 214.269531 93.964844 C 214.339844 93.601562 214.449219 93.246094 214.589844 92.90625 C 214.730469 92.5625 214.90625 92.238281 215.113281 91.929688 C 215.316406 91.621094 215.550781 91.335938 215.8125 91.074219 C 216.078125 90.8125 216.363281 90.578125 216.671875 90.371094 C 216.976562 90.167969 217.304688 89.992188 217.644531 89.851562 C 217.988281 89.710938 218.34375 89.601562 218.707031 89.53125 C 219.070312 89.457031 219.4375 89.421875 219.808594 89.421875 C 220.179688 89.421875 220.546875 89.457031 220.910156 89.53125 C 221.273438 89.601562 221.625 89.710938 221.96875 89.851562 C 222.3125 89.992188 222.636719 90.167969 222.945312 90.371094 C 223.253906 90.578125 223.539062 90.8125 223.800781 91.074219 Z M 223.800781 91.074219 " fill-opacity="1" fill-rule="nonzero"/><path fill="#e8c187" d="M 174.378906 64.925781 C 174.640625 65.1875 174.875 65.472656 175.082031 65.78125 C 175.289062 66.089844 175.460938 66.414062 175.605469 66.757812 C 175.746094 67.101562 175.851562 67.453125 175.925781 67.816406 C 175.996094 68.179688 176.035156 68.546875 176.035156 68.917969 C 176.035156 69.289062 175.996094 69.65625 175.925781 70.019531 C 175.851562 70.382812 175.746094 70.734375 175.605469 71.078125 C 175.460938 71.421875 175.289062 71.746094 175.082031 72.054688 C 174.875 72.363281 174.640625 72.648438 174.378906 72.910156 C 174.117188 73.171875 173.832031 73.40625 173.523438 73.609375 C 173.214844 73.816406 172.890625 73.992188 172.546875 74.132812 C 172.203125 74.273438 171.851562 74.382812 171.488281 74.453125 C 171.125 74.527344 170.757812 74.5625 170.386719 74.5625 C 170.015625 74.5625 169.648438 74.527344 169.285156 74.453125 C 168.921875 74.382812 168.566406 74.273438 168.226562 74.132812 C 167.882812 73.992188 167.558594 73.816406 167.25 73.609375 C 166.941406 73.40625 166.65625 73.171875 166.394531 72.910156 C 166.128906 72.648438 165.898438 72.363281 165.691406 72.054688 C 165.484375 71.746094 165.3125 71.421875 165.167969 71.078125 C 165.027344 70.734375 164.917969 70.382812 164.847656 70.019531 C 164.773438 69.65625 164.738281 69.289062 164.738281 68.917969 C 164.738281 68.546875 164.773438 68.179688 164.847656 67.816406 C 164.917969 67.453125 165.027344 67.101562 165.167969 66.757812 C 165.3125 66.414062 165.484375 66.089844 165.691406 65.78125 C 165.898438 65.472656 166.128906 65.1875 166.394531 64.925781 C 166.65625 64.664062 166.941406 64.429688 167.25 64.226562 C 167.558594 64.019531 167.882812 63.84375 168.226562 63.703125 C 168.566406 63.5625 168.921875 63.453125 169.285156 63.382812 C 169.648438 63.308594 170.015625 63.273438 170.386719 63.273438 C 170.757812 63.273438 171.125 63.308594 171.488281 63.382812 C 171.851562 63.453125 172.203125 63.5625 172.546875 63.703125 C 172.890625 63.84375 173.214844 64.019531 173.523438 64.226562 C 173.832031 64.429688 174.117188 64.664062 174.378906 64.925781 Z M 174.378906 64.925781 " fill-opacity="1" fill-rule="nonzero"/><path fill="#e8c187" d="M 217.265625 58.890625 C 217.527344 59.152344 217.761719 59.4375 217.964844 59.746094 C 218.171875 60.054688 218.347656 60.378906 218.488281 60.722656 C 218.628906 61.066406 218.738281 61.417969 218.808594 61.78125 C 218.882812 62.144531 218.917969 62.511719 218.917969 62.882812 C 218.917969 63.253906 218.882812 63.621094 218.808594 63.984375 C 218.738281 64.347656 218.628906 64.699219 218.488281 65.042969 C 218.347656 65.386719 218.171875 65.710938 217.964844 66.019531 C 217.761719 66.328125 217.527344 66.613281 217.265625 66.875 C 217 67.136719 216.714844 67.371094 216.410156 67.574219 C 216.101562 67.78125 215.773438 67.957031 215.433594 68.097656 C 215.089844 68.238281 214.734375 68.347656 214.371094 68.417969 C 214.007812 68.492188 213.640625 68.527344 213.269531 68.527344 C 212.898438 68.527344 212.53125 68.492188 212.167969 68.417969 C 211.804688 68.347656 211.453125 68.238281 211.109375 68.097656 C 210.765625 67.957031 210.441406 67.78125 210.132812 67.574219 C 209.824219 67.371094 209.539062 67.136719 209.277344 66.875 C 209.015625 66.613281 208.78125 66.328125 208.574219 66.019531 C 208.367188 65.710938 208.195312 65.386719 208.054688 65.042969 C 207.910156 64.699219 207.804688 64.347656 207.730469 63.984375 C 207.660156 63.621094 207.625 63.253906 207.625 62.882812 C 207.625 62.511719 207.660156 62.144531 207.730469 61.78125 C 207.804688 61.417969 207.910156 61.066406 208.054688 60.722656 C 208.195312 60.378906 208.367188 60.054688 208.574219 59.746094 C 208.78125 59.4375 209.015625 59.152344 209.277344 58.890625 C 209.539062 58.628906 209.824219 58.394531 210.132812 58.191406 C 210.441406 57.984375 210.765625 57.808594 211.109375 57.667969 C 211.453125 57.527344 211.804688 57.417969 212.167969 57.347656 C 212.53125 57.273438 212.898438 57.238281 213.269531 57.238281 C 213.640625 57.238281 214.007812 57.273438 214.371094 57.347656 C 214.734375 57.417969 215.089844 57.527344 215.433594 57.667969 C 215.773438 57.808594 216.101562 57.984375 216.410156 58.191406 C 216.714844 58.394531 217 58.628906 217.265625 58.890625 Z M 217.265625 58.890625 " fill-opacity="1" fill-rule="nonzero"/><path fill="#e8c187" d="M 297.761719 189.195312 C 298.023438 189.457031 298.257812 189.742188 298.460938 190.050781 C 298.667969 190.359375 298.84375 190.683594 298.984375 191.027344 C 299.125 191.371094 299.234375 191.722656 299.304688 192.085938 C 299.378906 192.449219 299.414062 192.816406 299.414062 193.1875 C 299.414062 193.558594 299.378906 193.925781 299.304688 194.289062 C 299.234375 194.652344 299.125 195.003906 298.984375 195.347656 C 298.84375 195.6875 298.667969 196.015625 298.460938 196.324219 C 298.257812 196.632812 298.023438 196.914062 297.761719 197.179688 C 297.5 197.441406 297.210938 197.675781 296.90625 197.878906 C 296.597656 198.085938 296.269531 198.257812 295.929688 198.402344 C 295.585938 198.542969 295.230469 198.652344 294.867188 198.722656 C 294.503906 198.796875 294.136719 198.832031 293.765625 198.832031 C 293.394531 198.832031 293.027344 198.796875 292.664062 198.722656 C 292.300781 198.652344 291.949219 198.542969 291.605469 198.402344 C 291.261719 198.257812 290.9375 198.085938 290.628906 197.878906 C 290.320312 197.675781 290.035156 197.441406 289.773438 197.179688 C 289.511719 196.914062 289.277344 196.632812 289.070312 196.324219 C 288.867188 196.015625 288.691406 195.6875 288.550781 195.347656 C 288.40625 195.003906 288.300781 194.652344 288.226562 194.289062 C 288.15625 193.925781 288.121094 193.558594 288.121094 193.1875 C 288.121094 192.816406 288.15625 192.449219 288.226562 192.085938 C 288.300781 191.722656 288.40625 191.371094 288.550781 191.027344 C 288.691406 190.683594 288.867188 190.359375 289.070312 190.050781 C 289.277344 189.742188 289.511719 189.457031 289.773438 189.195312 C 290.035156 188.933594 290.320312 188.699219 290.628906 188.492188 C 290.9375 188.289062 291.261719 188.113281 291.605469 187.972656 C 291.949219 187.832031 292.300781 187.722656 292.664062 187.652344 C 293.027344 187.578125 293.394531 187.542969 293.765625 187.542969 C 294.136719 187.542969 294.503906 187.578125 294.867188 187.652344 C 295.230469 187.722656 295.585938 187.832031 295.929688 187.972656 C 296.269531 188.113281 296.597656 188.289062 296.90625 188.492188 C 297.210938 188.699219 297.5 188.933594 297.761719 189.195312 Z M 297.761719 189.195312 " fill-opacity="1" fill-rule="nonzero"/><path fill="#e8c187" d="M 210.941406 10.632812 C 211.207031 10.894531 211.4375 11.179688 211.644531 11.488281 C 211.851562 11.796875 212.023438 12.121094 212.167969 12.464844 C 212.308594 12.808594 212.417969 13.160156 212.488281 13.523438 C 212.5625 13.886719 212.597656 14.253906 212.597656 14.625 C 212.597656 14.996094 212.5625 15.363281 212.488281 15.726562 C 212.417969 16.089844 212.308594 16.441406 212.167969 16.785156 C 212.023438 17.125 211.851562 17.453125 211.644531 17.761719 C 211.4375 18.066406 211.207031 18.351562 210.941406 18.617188 C 210.679688 18.878906 210.394531 19.113281 210.085938 19.316406 C 209.777344 19.523438 209.453125 19.695312 209.109375 19.839844 C 208.769531 19.980469 208.414062 20.085938 208.050781 20.160156 C 207.6875 20.230469 207.320312 20.269531 206.949219 20.269531 C 206.578125 20.269531 206.210938 20.230469 205.847656 20.160156 C 205.484375 20.085938 205.132812 19.980469 204.789062 19.839844 C 204.445312 19.695312 204.121094 19.523438 203.8125 19.316406 C 203.503906 19.113281 203.21875 18.878906 202.957031 18.617188 C 202.695312 18.351562 202.460938 18.066406 202.253906 17.761719 C 202.046875 17.453125 201.875 17.125 201.730469 16.785156 C 201.589844 16.441406 201.484375 16.089844 201.410156 15.726562 C 201.339844 15.363281 201.300781 14.996094 201.300781 14.625 C 201.300781 14.253906 201.339844 13.886719 201.410156 13.523438 C 201.484375 13.160156 201.589844 12.808594 201.730469 12.464844 C 201.875 12.121094 202.046875 11.796875 202.253906 11.488281 C 202.460938 11.179688 202.695312 10.894531 202.957031 10.632812 C 203.21875 10.371094 203.503906 10.136719 203.8125 9.929688 C 204.121094 9.726562 204.445312 9.550781 204.789062 9.410156 C 205.132812 9.269531 205.484375 9.160156 205.847656 9.089844 C 206.210938 9.015625 206.578125 8.980469 206.949219 8.980469 C 207.320312 8.980469 207.6875 9.015625 208.050781 9.089844 C 208.414062 9.160156 208.769531 9.269531 209.109375 9.410156 C 209.453125 9.550781 209.777344 9.726562 210.085938 9.929688 C 210.394531 10.136719 210.679688 10.371094 210.941406 10.632812 Z M 210.941406 10.632812 " fill-opacity="1" fill-rule="nonzero"/><path fill="#e8c187" d="M 181.53125 349.210938 C 180.878906 348.558594 180.878906 347.5 181.53125 346.847656 C 182.183594 346.191406 183.246094 346.191406 183.898438 346.847656 L 202.1875 365.128906 C 202.84375 365.78125 202.84375 366.839844 202.1875 367.492188 C 201.539062 368.144531 200.476562 368.144531 199.824219 367.492188 Z M 181.53125 349.210938 " fill-opacity="1" fill-rule="nonzero"/><path fill="#e8c187" d="M 43.460938 349.699219 C 42.539062 349.699219 41.789062 348.953125 41.789062 348.027344 C 41.789062 347.105469 42.539062 346.355469 43.460938 346.355469 L 182.679688 346.355469 C 183.601562 346.355469 184.351562 347.105469 184.351562 348.027344 C 184.351562 348.953125 183.601562 349.699219 182.679688 349.699219 Z M 43.460938 349.699219 " fill-opacity="1" fill-rule="nonzero"/><path fill="#e8c187" d="M 45.78125 344.035156 C 46.042969 344.300781 46.277344 344.585938 46.484375 344.890625 C 46.6875 345.199219 46.863281 345.527344 47.003906 345.867188 C 47.148438 346.210938 47.253906 346.5625 47.328125 346.925781 C 47.398438 347.289062 47.433594 347.65625 47.433594 348.027344 C 47.433594 348.398438 47.398438 348.765625 47.328125 349.128906 C 47.253906 349.492188 47.148438 349.84375 47.003906 350.1875 C 46.863281 350.53125 46.6875 350.855469 46.484375 351.164062 C 46.277344 351.472656 46.042969 351.757812 45.78125 352.019531 C 45.519531 352.28125 45.234375 352.515625 44.925781 352.722656 C 44.617188 352.925781 44.292969 353.101562 43.949219 353.242188 C 43.605469 353.382812 43.253906 353.492188 42.890625 353.5625 C 42.527344 353.636719 42.160156 353.671875 41.789062 353.671875 C 41.417969 353.671875 41.050781 353.636719 40.6875 353.5625 C 40.324219 353.492188 39.96875 353.382812 39.625 353.242188 C 39.285156 353.101562 38.957031 352.925781 38.648438 352.722656 C 38.34375 352.515625 38.054688 352.28125 37.792969 352.019531 C 37.53125 351.757812 37.296875 351.472656 37.09375 351.164062 C 36.886719 350.855469 36.710938 350.53125 36.570312 350.1875 C 36.429688 349.84375 36.320312 349.492188 36.25 349.128906 C 36.175781 348.765625 36.140625 348.398438 36.140625 348.027344 C 36.140625 347.65625 36.175781 347.289062 36.25 346.925781 C 36.320312 346.5625 36.429688 346.210938 36.570312 345.867188 C 36.710938 345.527344 36.886719 345.199219 37.09375 344.890625 C 37.296875 344.585938 37.53125 344.300781 37.792969 344.035156 C 38.054688 343.773438 38.34375 343.539062 38.648438 343.335938 C 38.957031 343.128906 39.285156 342.957031 39.625 342.8125 C 39.96875 342.671875 40.324219 342.566406 40.6875 342.492188 C 41.050781 342.421875 41.417969 342.382812 41.789062 342.382812 C 42.160156 342.382812 42.527344 342.421875 42.890625 342.492188 C 43.253906 342.566406 43.605469 342.671875 43.949219 342.8125 C 44.292969 342.957031 44.617188 343.128906 44.925781 343.335938 C 45.234375 343.539062 45.519531 343.773438 45.78125 344.035156 Z M 45.78125 344.035156 " fill-opacity="1" fill-rule="nonzero"/><path fill="#e8c187" d="M 26.964844 252.019531 C 26.3125 251.367188 26.3125 250.308594 26.964844 249.65625 C 27.617188 249 28.679688 249 29.332031 249.65625 L 125.949219 346.214844 C 126.601562 346.867188 126.601562 347.925781 125.949219 348.582031 C 125.296875 349.234375 124.234375 349.234375 123.582031 348.582031 Z M 26.964844 252.019531 " fill-opacity="1" fill-rule="nonzero"/><path fill="#e8c187" d="M 30.957031 245.664062 C 31.21875 245.925781 31.453125 246.210938 31.660156 246.519531 C 31.867188 246.828125 32.039062 247.152344 32.183594 247.496094 C 32.324219 247.835938 32.429688 248.191406 32.503906 248.554688 C 32.574219 248.917969 32.613281 249.285156 32.613281 249.65625 C 32.613281 250.023438 32.574219 250.390625 32.503906 250.757812 C 32.429688 251.121094 32.324219 251.472656 32.183594 251.816406 C 32.039062 252.15625 31.867188 252.480469 31.660156 252.789062 C 31.453125 253.097656 31.21875 253.382812 30.957031 253.644531 C 30.695312 253.90625 30.410156 254.140625 30.101562 254.347656 C 29.792969 254.554688 29.46875 254.726562 29.125 254.871094 C 28.785156 255.011719 28.429688 255.117188 28.066406 255.191406 C 27.703125 255.261719 27.335938 255.300781 26.964844 255.300781 C 26.59375 255.300781 26.226562 255.261719 25.863281 255.191406 C 25.5 255.117188 25.144531 255.011719 24.804688 254.871094 C 24.460938 254.726562 24.136719 254.554688 23.828125 254.347656 C 23.519531 254.140625 23.234375 253.90625 22.972656 253.644531 C 22.710938 253.382812 22.476562 253.097656 22.269531 252.789062 C 22.0625 252.480469 21.890625 252.15625 21.746094 251.816406 C 21.605469 251.472656 21.5 251.121094 21.425781 250.757812 C 21.355469 250.390625 21.316406 250.023438 21.316406 249.65625 C 21.316406 249.285156 21.355469 248.917969 21.425781 248.554688 C 21.5 248.191406 21.605469 247.835938 21.746094 247.496094 C 21.890625 247.152344 22.0625 246.828125 22.269531 246.519531 C 22.476562 246.210938 22.710938 245.925781 22.972656 245.664062 C 23.234375 245.402344 23.519531 245.167969 23.828125 244.960938 C 24.136719 244.757812 24.460938 244.582031 24.804688 244.441406 C 25.144531 244.296875 25.5 244.191406 25.863281 244.117188 C 26.226562 244.046875 26.59375 244.011719 26.964844 244.011719 C 27.335938 244.011719 27.703125 244.046875 28.066406 244.117188 C 28.429688 244.191406 28.785156 244.296875 29.125 244.441406 C 29.46875 244.582031 29.792969 244.757812 30.101562 244.960938 C 30.410156 245.167969 30.695312 245.402344 30.957031 245.664062 Z M 30.957031 245.664062 " fill-opacity="1" fill-rule="nonzero"/><path fill="#e8c187" d="M 358.59375 60.207031 C 358.59375 59.285156 359.34375 58.535156 360.265625 58.535156 C 361.1875 58.535156 361.9375 59.285156 361.9375 60.207031 L 361.9375 208.109375 C 361.9375 209.03125 361.1875 209.78125 360.265625 209.78125 C 359.34375 209.78125 358.59375 209.03125 358.59375 208.109375 Z M 358.59375 60.207031 " fill-opacity="1" fill-rule="nonzero"/><path fill="#e8c187" d="M 364.261719 54.546875 C 364.523438 54.808594 364.757812 55.09375 364.960938 55.402344 C 365.167969 55.707031 365.34375 56.035156 365.484375 56.375 C 365.625 56.71875 365.734375 57.070312 365.804688 57.433594 C 365.878906 57.796875 365.914062 58.164062 365.914062 58.535156 C 365.914062 58.90625 365.878906 59.273438 365.804688 59.636719 C 365.734375 60 365.625 60.355469 365.484375 60.695312 C 365.34375 61.039062 365.167969 61.363281 364.960938 61.671875 C 364.757812 61.980469 364.523438 62.265625 364.261719 62.527344 C 363.996094 62.789062 363.710938 63.023438 363.40625 63.230469 C 363.097656 63.433594 362.769531 63.609375 362.429688 63.75 C 362.085938 63.894531 361.730469 64 361.367188 64.070312 C 361.003906 64.144531 360.636719 64.179688 360.265625 64.179688 C 359.894531 64.179688 359.527344 64.144531 359.164062 64.070312 C 358.800781 64 358.449219 63.894531 358.105469 63.75 C 357.761719 63.609375 357.4375 63.433594 357.128906 63.230469 C 356.820312 63.023438 356.535156 62.789062 356.273438 62.527344 C 356.011719 62.265625 355.777344 61.980469 355.570312 61.671875 C 355.363281 61.363281 355.191406 61.039062 355.050781 60.695312 C 354.90625 60.355469 354.800781 60 354.726562 59.636719 C 354.65625 59.273438 354.621094 58.90625 354.621094 58.535156 C 354.621094 58.164062 354.65625 57.796875 354.726562 57.433594 C 354.800781 57.070312 354.90625 56.71875 355.050781 56.375 C 355.191406 56.035156 355.363281 55.707031 355.570312 55.402344 C 355.777344 55.09375 356.011719 54.808594 356.273438 54.546875 C 356.535156 54.285156 356.820312 54.050781 357.128906 53.84375 C 357.4375 53.636719 357.761719 53.464844 358.105469 53.320312 C 358.449219 53.179688 358.800781 53.074219 359.164062 53 C 359.527344 52.929688 359.894531 52.890625 360.265625 52.890625 C 360.636719 52.890625 361.003906 52.929688 361.367188 53 C 361.730469 53.074219 362.085938 53.179688 362.429688 53.320312 C 362.769531 53.464844 363.097656 53.636719 363.40625 53.84375 C 363.710938 54.050781 363.996094 54.285156 364.261719 54.546875 Z M 364.261719 54.546875 " fill-opacity="1" fill-rule="nonzero"/><path fill="#e8c187" d="M 329.832031 91.523438 C 329.179688 90.871094 329.179688 89.808594 329.832031 89.160156 C 330.488281 88.503906 331.546875 88.503906 332.199219 89.160156 L 361.023438 117.964844 C 361.675781 118.617188 361.675781 119.675781 361.023438 120.328125 C 360.367188 120.984375 359.308594 120.984375 358.65625 120.328125 Z M 329.832031 91.523438 " fill-opacity="1" fill-rule="nonzero"/><path fill="#e8c187" d="M 333.828125 85.167969 C 334.089844 85.429688 334.324219 85.714844 334.527344 86.023438 C 334.734375 86.332031 334.910156 86.65625 335.050781 87 C 335.191406 87.339844 335.300781 87.695312 335.371094 88.058594 C 335.445312 88.421875 335.480469 88.789062 335.480469 89.15625 C 335.480469 89.527344 335.445312 89.894531 335.371094 90.257812 C 335.300781 90.621094 335.191406 90.976562 335.050781 91.316406 C 334.910156 91.660156 334.734375 91.984375 334.527344 92.292969 C 334.324219 92.601562 334.089844 92.886719 333.828125 93.148438 C 333.5625 93.410156 333.277344 93.644531 332.96875 93.851562 C 332.664062 94.058594 332.335938 94.230469 331.996094 94.371094 C 331.652344 94.515625 331.296875 94.621094 330.933594 94.695312 C 330.570312 94.765625 330.203125 94.800781 329.832031 94.800781 C 329.460938 94.800781 329.09375 94.765625 328.730469 94.695312 C 328.367188 94.621094 328.015625 94.515625 327.671875 94.371094 C 327.328125 94.230469 327.003906 94.058594 326.695312 93.851562 C 326.386719 93.644531 326.101562 93.410156 325.839844 93.148438 C 325.578125 92.886719 325.34375 92.601562 325.136719 92.292969 C 324.929688 91.984375 324.757812 91.660156 324.617188 91.316406 C 324.472656 90.976562 324.367188 90.621094 324.292969 90.257812 C 324.222656 89.894531 324.1875 89.527344 324.1875 89.15625 C 324.1875 88.789062 324.222656 88.421875 324.292969 88.058594 C 324.367188 87.695312 324.472656 87.339844 324.617188 87 C 324.757812 86.65625 324.929688 86.332031 325.136719 86.023438 C 325.34375 85.714844 325.578125 85.429688 325.839844 85.167969 C 326.101562 84.90625 326.386719 84.671875 326.695312 84.464844 C 327.003906 84.257812 327.328125 84.085938 327.671875 83.945312 C 328.015625 83.800781 328.367188 83.695312 328.730469 83.621094 C 329.09375 83.550781 329.460938 83.515625 329.832031 83.515625 C 330.203125 83.515625 330.570312 83.550781 330.933594 83.621094 C 331.296875 83.695312 331.652344 83.800781 331.996094 83.945312 C 332.335938 84.085938 332.664062 84.257812 332.96875 84.464844 C 333.277344 84.671875 333.5625 84.90625 333.828125 85.167969 Z M 333.828125 85.167969 " fill-opacity="1" fill-rule="nonzero"/></svg>