<?xml version="1.0" encoding="UTF-8" standalone="no"?><svg xmlns="http://www.w3.org/2000/svg" xmlns:xlink="http://www.w3.org/1999/xlink" width="500" zoomAndPan="magnify" viewBox="0 0 375 374.999991" height="500" preserveAspectRatio="xMidYMid meet" version="1.0"><defs><clipPath id="6aec2ee649"><path d="M 143 8.394531 L 163 8.394531 L 163 45 L 143 45 Z M 143 8.394531 " clip-rule="nonzero"/></clipPath></defs><path fill="#e8c187" d="M 228.980469 293.402344 C 222.089844 281.394531 206.4375 275.429688 193.378906 273.277344 C 180.53125 271.167969 167.71875 271.351562 155.179688 267.214844 C 142.183594 262.914062 130.199219 255.652344 120.082031 246.472656 C 90.175781 219.367188 87.355469 177.144531 98.894531 140.527344 C 113.203125 95.105469 146.902344 64.046875 194.527344 56.871094 C 243.757812 49.457031 300.882812 83.21875 313.027344 132.992188 C 318.84375 156.859375 315.101562 183.582031 305.355469 205.902344 C 295.605469 228.238281 281.324219 247.683594 284.03125 273.230469 C 284.167969 274.539062 287.835938 274.390625 287.710938 273.167969 C 284.636719 244.101562 303.996094 222.742188 312.644531 196.664062 C 319.757812 175.191406 322.144531 150.929688 315.65625 129.027344 C 303.675781 88.570312 260.347656 57.328125 218.851562 53.757812 C 177.304688 50.175781 133.671875 70.507812 111.300781 105.566406 C 91.050781 137.292969 80.894531 181.207031 95.449219 217.15625 C 104.40625 239.28125 123.503906 256.378906 145.199219 265.730469 C 156.09375 270.425781 167.335938 272.539062 179.085938 273.648438 C 195.292969 275.183594 216.441406 278.246094 225.449219 293.945312 C 226.066406 295.023438 229.660156 294.566406 228.980469 293.402344 Z M 228.980469 293.402344 " fill-opacity="1" fill-rule="nonzero"/><path fill="#e8c187" d="M 227.488281 293.796875 C 217.542969 277.417969 205.398438 274.195312 187.101562 270.636719 C 163.125 265.953125 141.714844 260.503906 124.046875 243.457031 C 109.410156 229.335938 100.070312 214.488281 95.152344 194.625 C 92.953125 185.730469 90.765625 176.351562 91.792969 167.285156 C 93.238281 154.5625 97.414062 141.332031 102.007812 129.433594 C 110.84375 106.542969 124.578125 88.570312 145.617188 75.796875 C 165.199219 63.898438 187.882812 58.957031 210.613281 58.425781 C 256.792969 57.339844 313.878906 84.234375 318.535156 135.847656 C 320.671875 159.503906 307.925781 184.222656 300.535156 206 C 292.582031 229.449219 275.804688 246.523438 282.683594 272.882812 C 283.03125 274.207031 286.652344 273.910156 286.367188 272.820312 C 279.238281 245.484375 297.992188 227.386719 305.15625 202.964844 C 306.886719 197.058594 309.441406 192.476562 311.421875 186.730469 C 313.804688 179.8125 315.769531 172.511719 317.941406 165.507812 C 321.363281 154.511719 323.429688 143.640625 321.773438 132.101562 C 315.695312 89.546875 270.863281 61.328125 230.785156 57.214844 C 193.253906 53.363281 149.25 62.230469 122.046875 90.1875 C 105.726562 106.964844 96.757812 129.917969 91.324219 152.289062 C 88.371094 164.457031 87.222656 173.636719 89.570312 185.925781 C 91.484375 195.957031 94.164062 205.890625 98.449219 215.191406 C 107.246094 234.242188 123.589844 250.859375 142.109375 260.234375 C 152.574219 265.535156 163.976562 268.191406 175.414062 270.414062 C 183.730469 272.03125 192.253906 273.230469 200.40625 275.613281 C 212.367188 279.109375 217.667969 284.027344 223.941406 294.367188 C 224.585938 295.417969 228.167969 294.933594 227.488281 293.796875 Z M 227.488281 293.796875 " fill-opacity="1" fill-rule="nonzero"/><path fill="#e8c187" d="M 226.871094 294.035156 C 214.34375 281.742188 198.839844 275.589844 181.816406 272.363281 C 167.164062 269.597656 153.921875 265.136719 140.527344 258.542969 C 130.460938 253.585938 117.96875 249.101562 108.777344 242.816406 C 70.542969 216.652344 83.417969 164.730469 101.28125 130.039062 C 122.851562 88.1875 163.480469 65.554688 210.230469 67.023438 C 250.34375 68.285156 294.890625 81.402344 309.046875 123.222656 C 317.523438 148.25 312.667969 176.613281 304.476562 200.972656 C 296.484375 224.753906 280.78125 247.261719 281.574219 272.933594 C 281.609375 274.21875 285.292969 274.144531 285.253906 272.871094 C 284.390625 245.015625 303.117188 219.109375 310.765625 192.734375 C 317.101562 170.878906 320.054688 146.359375 313.085938 124.28125 C 300.734375 85.097656 262.722656 70.472656 225.203125 66.246094 C 186.707031 61.910156 146.101562 70.679688 118.785156 99.75 C 102.21875 117.363281 89.628906 140.601562 83.761719 164.074219 C 79.242188 182.148438 77.152344 204.554688 85.910156 221.726562 C 96.734375 242.9375 117.933594 250.042969 137.945312 259.902344 C 150.226562 265.941406 162.703125 270.820312 176.167969 273.453125 C 194.316406 276.996094 210.167969 281.742188 223.707031 295.035156 C 224.535156 295.824219 228.066406 295.207031 226.871094 294.035156 Z M 226.871094 294.035156 " fill-opacity="1" fill-rule="nonzero"/><path fill="#e8c187" d="M 226.363281 296.035156 C 226.328125 295.996094 254.320312 281.125 257.113281 279.949219 C 262.632812 277.640625 268.09375 275.726562 273.863281 274.179688 C 280.175781 272.5 292.285156 267.660156 292.628906 277.207031 C 292.777344 281.332031 292.863281 281.554688 289.789062 283.667969 C 288.527344 284.535156 291.394531 285.089844 291.886719 284.992188 C 295.941406 284.101562 308.207031 280.34375 305.875 290.5625 C 299.695312 295.503906 301.414062 300.050781 311.035156 304.210938 C 308.925781 307.339844 306.144531 309.683594 302.6875 311.253906 C 300.917969 312.28125 304.070312 312.996094 304.933594 312.664062 C 304.648438 314.652344 304.367188 316.640625 304.082031 318.628906 C 302.167969 320.445312 300.078125 322.027344 297.792969 323.347656 C 295.136719 325.140625 292.445312 326.734375 289.628906 328.242188 C 283.734375 331.390625 277.769531 334.464844 271.839844 337.554688 C 267.179688 339.976562 256.53125 347.226562 251.6875 346.3125 C 250.714844 346.660156 249.726562 347.003906 248.75 347.351562 C 248.367188 343.917969 247.984375 340.484375 247.601562 337.046875 C 247.636719 337.257812 249.488281 335.691406 249.046875 336.058594 C 250.082031 335.207031 247.957031 334.675781 247.425781 334.703125 C 242.214844 335.925781 239.285156 332.8125 238.65625 325.335938 C 240.667969 323.757812 242.730469 322.25 244.84375 320.804688 C 243.882812 320.445312 242.90625 320.097656 241.941406 319.742188 C 228.390625 330.03125 233.726562 306.375 234.457031 307.351562 C 236.976562 305.621094 235.480469 305.335938 229.996094 306.523438 C 223.855469 305.003906 222.769531 301.976562 226.734375 297.429688 C 229.007812 296.652344 226.140625 295.429688 224.84375 295.875 C 219.125 297.839844 218.246094 302.25 223.535156 306.820312 C 228.402344 311.03125 234.183594 307.695312 239.0625 304.683594 C 240.828125 303.59375 237.65625 302.976562 236.816406 303.273438 C 219.261719 309.476562 230.527344 331.722656 245.140625 320.617188 C 246.414062 319.65625 242.992188 319.0625 242.238281 319.554688 C 237.359375 322.667969 229.007812 327.636719 234.320312 334.109375 C 236.976562 337.34375 237.863281 335.542969 241.3125 336.9375 C 245.585938 338.667969 244.363281 336.132812 244.339844 335.960938 C 244.3125 335.800781 239.71875 339.433594 239.53125 339.65625 C 235.703125 344.289062 237.0625 348.214844 243.054688 349.636719 C 252.503906 351.886719 266.699219 342.84375 274.46875 338.800781 C 281.5 335.144531 288.714844 331.613281 295.582031 327.660156 C 299.660156 325.3125 308.34375 320.964844 310.035156 316.417969 C 310.902344 314.09375 311.988281 313.21875 310.148438 311.265625 C 309.664062 310.746094 305.21875 309.550781 305.601562 310.242188 C 307.417969 313.515625 317.957031 304.3125 314.679688 298.519531 C 311.125 292.230469 302.105469 295.8125 297.71875 298.148438 C 295.890625 299.121094 299.339844 299.902344 300.339844 299.40625 C 307.777344 295.761719 316.078125 284.101562 303.96875 280.875 C 300.945312 280.074219 295.308594 283.199219 293.382812 282.445312 C 295.507812 283.285156 300.386719 279.492188 299.277344 275.578125 C 296.546875 265.941406 277.730469 270.957031 272.222656 272.425781 C 254.628906 277.109375 238.234375 285.816406 222.804688 295.257812 C 222.335938 295.539062 222.089844 295.949219 222.535156 296.378906 C 222.757812 296.589844 222.976562 296.8125 223.199219 297.023438 C 224.027344 297.8125 227.5625 297.195312 226.363281 296.035156 Z M 226.363281 296.035156 " fill-opacity="1" fill-rule="nonzero"/><path fill="#e8c187" d="M 289.910156 276.257812 C 289.898438 276.171875 289.886719 276.070312 289.875 275.984375 C 289.75 275.058594 288.171875 275.046875 287.527344 275.132812 C 273.640625 277.183594 238.074219 279.097656 232.726562 296.132812 C 232.625 296.429688 232.6875 296.613281 232.921875 296.835938 C 238.320312 301.839844 248.316406 297.035156 254.121094 295.070312 C 262.957031 292.082031 275.160156 287.535156 281.734375 280.851562 C 282.019531 280.554688 282.054688 280.199219 281.722656 279.925781 C 276.398438 275.589844 263.300781 280.703125 257.878906 282.359375 C 253.800781 283.605469 230.058594 291.03125 231.476562 297.851562 C 234.171875 310.734375 284.128906 285.757812 289.984375 281.851562 C 291.320312 280.964844 289.554688 280.285156 288.664062 280.308594 C 279.90625 280.53125 270.21875 284.472656 262.191406 287.660156 C 254.839844 290.5625 245.695312 293.761719 239.457031 298.664062 C 238.246094 299.617188 241.039062 300.097656 241.558594 299.988281 C 250.515625 298.046875 259.164062 294.6875 267.8125 291.6875 C 274.074219 289.511719 281.214844 287.941406 286.722656 284.113281 C 288.121094 283.148438 284.675781 282.753906 284.179688 282.902344 C 270.875 286.71875 250.046875 294.652344 241.867188 306.523438 C 241.386719 307.214844 242.84375 307.574219 243.175781 307.632812 C 248.265625 308.609375 253.457031 305.707031 257.976562 303.667969 C 267.5625 299.332031 278.015625 295.21875 286.652344 289.164062 C 288.082031 288.164062 284.550781 287.84375 284.105469 287.957031 C 267.847656 291.722656 253 303.347656 239.679688 312.996094 C 238.273438 314.007812 241.757812 314.332031 242.226562 314.207031 C 247.574219 312.847656 252.652344 310.242188 257.632812 307.917969 C 261.078125 306.3125 264.449219 304.582031 267.847656 302.878906 C 269.058594 302.273438 281.488281 296.949219 281.609375 296.589844 C 282.363281 294.441406 268.859375 301.199219 267.402344 302.050781 C 260.3125 306.164062 253.429688 311.230469 245.636719 313.945312 C 246.488281 314.355469 247.328125 314.761719 248.179688 315.15625 C 257.855469 306.054688 270.355469 300.40625 280.128906 291.425781 C 281.414062 290.253906 278.125 290.054688 277.582031 290.214844 C 263.84375 294.082031 252.394531 304.136719 238.542969 307.84375 C 239.445312 308.179688 240.359375 308.511719 241.261719 308.832031 C 242.820312 303.199219 255.875 297.960938 260.472656 295.269531 C 265.230469 292.476562 270.417969 290.375 274.839844 287.078125 C 276.234375 286.039062 272.765625 285.742188 272.296875 285.867188 C 257.816406 289.5 245.449219 298.863281 231.207031 303.1875 C 232.058594 303.59375 232.898438 304.003906 233.75 304.398438 C 244.015625 294.996094 259.445312 291.734375 270.863281 283.929688 C 272.234375 282.988281 268.859375 282.542969 268.316406 282.71875 C 263.191406 284.386719 258.496094 286.78125 253.578125 288.96875 C 250.785156 290.214844 247.945312 291.378906 245.140625 292.585938 C 244.351562 292.921875 234.292969 298.417969 235.691406 298.714844 C 237.421875 299.085938 244.929688 293.5625 246.746094 292.601562 C 250.640625 290.539062 254.679688 288.683594 258.324219 286.199219 C 259.484375 285.410156 257.113281 284.855469 256.703125 284.84375 C 246.722656 284.519531 235.320312 292.316406 226.5625 296.292969 C 224.734375 297.121094 227.945312 298 228.808594 297.703125 C 231.800781 296.675781 240.804688 294.996094 241.175781 290.957031 C 241.238281 290.214844 239.742188 290.042969 239.324219 290.066406 C 232.34375 290.476562 223.027344 293.625 220.929688 301.210938 C 220.839844 301.519531 220.878906 301.679688 221.125 301.914062 C 225.460938 306.015625 236.519531 299.800781 237.964844 295.242188 C 238.199219 294.492188 237.222656 294.207031 236.65625 294.132812 C 230.996094 293.414062 222.84375 297.097656 224.066406 303.519531 C 224.152344 303.988281 224.570312 304.164062 224.992188 304.300781 C 228.179688 305.324219 234.515625 305.90625 236.742188 302.53125 C 239.125 298.925781 235.925781 295.898438 232.070312 296.640625 C 229.796875 297.085938 226.511719 299.171875 230.21875 301.433594 C 230.117188 301.371094 250.242188 288.929688 253.429688 287.585938 C 261.695312 284.101562 270.492188 280.566406 279.175781 278.234375 C 278.324219 277.824219 277.484375 277.417969 276.632812 277.023438 C 278.832031 275.34375 257.902344 287.597656 266.019531 280.617188 C 268.578125 278.417969 271.320312 277.46875 274.445312 276.390625 C 277.535156 275.328125 293.457031 269.945312 281.105469 274.835938 C 274.46875 277.453125 270.566406 279.308594 279.660156 276.230469 C 280.117188 276.082031 289.765625 272.734375 289.527344 274.933594 C 289.367188 276.480469 280.84375 279.628906 280.546875 279.703125 C 281.398438 280.109375 282.242188 280.519531 283.09375 280.914062 C 287.183594 276.28125 290.296875 278.554688 287.019531 281.148438 C 288.144531 281.371094 289.269531 281.582031 290.394531 281.804688 C 291.234375 281.023438 292.074219 280.257812 292.914062 279.480469 C 291.789062 279.257812 290.664062 279.046875 289.542969 278.824219 C 286.738281 288.042969 273.914062 293.441406 265.746094 296.441406 C 263.5 297.269531 266.351562 298.46875 267.636719 298 C 276.496094 294.738281 290.085938 289.179688 293.097656 279.257812 C 293.570312 277.703125 290.355469 278.171875 289.726562 278.605469 C 287.761719 279.949219 288.292969 279.503906 286.847656 281.371094 C 285.984375 282.484375 289.628906 282.496094 290.222656 282.027344 C 301.636719 272.996094 285.574219 273.613281 279.90625 280.050781 C 278.757812 281.359375 281.832031 281.421875 282.449219 281.257812 C 286.15625 280.332031 293.371094 277.160156 294.71875 273.179688 C 294.867188 272.734375 294.59375 272.488281 294.222656 272.289062 C 287.613281 268.695312 275.941406 274.253906 270.738281 278.542969 C 269.847656 279.269531 271.382812 279.789062 271.863281 279.875 C 277.753906 280.851562 285.351562 275.429688 289.875 272.253906 C 290.800781 271.597656 289.207031 270.945312 288.75 270.917969 C 280.597656 270.488281 262.226562 275.550781 257.113281 282.371094 C 257.027344 282.53125 257.027344 282.691406 257.125 282.867188 C 260.917969 289.042969 276.027344 280.828125 279.84375 277.910156 C 281.214844 276.863281 277.78125 276.566406 277.296875 276.699219 C 272.445312 278 220.976562 296.539062 230.355469 304.003906 C 231.132812 304.621094 232.789062 304.632812 233.527344 303.953125 C 233.984375 303.53125 234.429688 303.113281 234.886719 302.707031 C 235.195312 302.421875 235.195312 302.050781 234.875 301.777344 C 229.539062 298.492188 229.402344 296.601562 234.457031 296.109375 C 233.984375 296.46875 233.515625 296.835938 233.046875 297.195312 C 230.316406 300.382812 221.679688 302.570312 227.832031 296.628906 C 236.617188 292.574219 237.828125 291.910156 231.464844 294.613281 C 230.796875 294.847656 230.117188 295.082031 229.453125 295.316406 C 226.757812 298.914062 232.984375 295.332031 234.972656 294.699219 C 239.667969 293.21875 244.757812 290.796875 249.167969 288.695312 C 252.453125 287.128906 253.875 286.3125 249.589844 288.398438 C 243.226562 291.5 237.171875 295.21875 230.972656 298.628906 C 229.203125 299.605469 232.34375 300.394531 233.21875 300.035156 C 245.550781 295.058594 257.570312 288.386719 270.207031 284.285156 C 269.355469 283.878906 268.515625 283.472656 267.664062 283.074219 C 256.246094 290.882812 240.816406 294.15625 230.550781 303.546875 C 229.277344 304.707031 232.539062 304.929688 233.097656 304.757812 C 247.304688 300.445312 259.730469 291.070312 274.183594 287.4375 C 273.332031 287.027344 272.492188 286.621094 271.640625 286.226562 C 264.289062 291.6875 255.222656 295.539062 247.414062 300.457031 C 244.214844 302.46875 238.777344 304.519531 237.703125 308.425781 C 237.347656 309.710938 239.730469 309.597656 240.421875 309.414062 C 254.222656 305.730469 265.722656 295.664062 279.460938 291.785156 C 278.609375 291.378906 277.769531 290.96875 276.914062 290.574219 C 267.167969 299.542969 254.640625 305.199219 244.96875 314.304688 C 243.734375 315.464844 246.933594 315.726562 247.511719 315.515625 C 260.597656 310.957031 272.738281 301.792969 284.796875 295.035156 C 286.625 294.007812 283.167969 293.28125 282.179688 293.773438 C 269.132812 300.359375 254.492188 309.066406 240.335938 312.664062 C 241.1875 313.070312 242.027344 313.476562 242.878906 313.875 C 255.566406 304.695312 270.480469 293.105469 285.996094 289.523438 C 285.144531 289.117188 284.304688 288.707031 283.449219 288.3125 C 278.003906 292.144531 271.691406 294.699219 265.6875 297.503906 C 262.808594 298.851562 259.980469 300.308594 257.101562 301.628906 C 255.085938 302.558594 247.785156 307.375 249.996094 303.558594 C 255.394531 294.242188 276.792969 287.152344 286.070312 284.484375 C 285.21875 284.078125 284.378906 283.667969 283.523438 283.273438 C 275.605469 288.78125 263.785156 291.117188 254.691406 294.105469 C 253.308594 294.5625 242.929688 299.320312 248.316406 296.640625 C 254.839844 293.402344 261.375 290.152344 268.253906 287.707031 C 271.269531 286.632812 280.757812 282.113281 283.746094 282.976562 C 282.933594 282.742188 275.632812 286.78125 273.628906 287.671875 C 268.167969 290.105469 262.746094 292.292969 257.101562 294.230469 C 253.246094 295.566406 243.386719 300.46875 239.621094 299.171875 C 229.265625 295.613281 251.144531 287.003906 252.910156 286.324219 C 258.546875 284.164062 264.316406 282.496094 270.257812 281.445312 C 274.914062 280.617188 277.535156 279.59375 273.703125 283.445312 C 270.800781 286.386719 264.191406 288.414062 260.460938 290.167969 C 257.46875 291.5625 247.5 296.835938 243.609375 296.121094 C 229.835938 293.5625 249.195312 285.632812 251.9375 284.644531 C 254.417969 283.742188 286.378906 277.332031 286.253906 276.367188 C 286.402344 277.640625 290.058594 277.46875 289.910156 276.257812 Z M 289.910156 276.257812 " fill-opacity="1" fill-rule="nonzero"/><path fill="#e8c187" d="M 283.808594 286.460938 C 275.039062 276.910156 248.203125 304.386719 247.289062 312.996094 C 247.230469 313.5625 248.277344 313.835938 248.664062 313.859375 C 254.492188 314.304688 277.371094 304.496094 268.105469 299.371094 C 258.902344 294.28125 230.082031 306.820312 234.308594 319.097656 C 234.457031 319.519531 235.246094 319.691406 235.605469 319.714844 C 247.996094 320.703125 254.382812 299.605469 240.59375 303.371094 C 227.609375 306.929688 237.679688 323.136719 242.101562 313.292969 C 247.15625 302.039062 222.519531 307.683594 232.8125 317.628906 C 243.1875 327.648438 269.539062 304.90625 267.367188 294.601562 C 267.230469 293.984375 266.539062 293.835938 265.996094 293.738281 C 257.371094 292.230469 246.808594 303.0625 247.734375 311.277344 C 247.773438 311.574219 248.019531 311.808594 248.292969 311.921875 C 255.949219 315.058594 264.414062 309.945312 271.011719 306.054688 C 277.753906 302.0625 291.136719 295.355469 292.011719 286.546875 C 292.085938 285.78125 290.566406 285.683594 290.160156 285.65625 C 282.660156 285.324219 270.417969 301.804688 282.621094 302.53125 C 289.664062 302.953125 306.09375 291.4375 294.46875 286.066406 C 288.167969 283.148438 272.578125 292.835938 279.25 298.949219 C 285.339844 304.519531 306.144531 295.332031 302.253906 287.042969 C 301.992188 286.484375 300.980469 286.398438 300.460938 286.398438 C 293.890625 286.375 279.820312 297.960938 291.011719 300.742188 C 298.421875 302.582031 305.34375 289.757812 296.816406 289.289062 C 296.285156 289.265625 294.039062 289.363281 294.570312 290.464844 C 297.804688 297.058594 308.601562 292.722656 303.75 286.96875 C 303.128906 286.238281 300.636719 285.867188 300.203125 287.027344 C 299.300781 289.414062 299.882812 291.105469 300.871094 293.378906 C 301.351562 294.492188 304.191406 294.207031 304.476562 293.070312 C 306.8125 283.679688 294.359375 280.890625 288.390625 286.496094 C 280.1875 294.21875 293.605469 295.613281 299.027344 293.613281 C 304.242188 291.6875 311.085938 281.777344 301.859375 281.246094 C 292.417969 280.703125 295.621094 289.710938 302.921875 290.847656 C 303.4375 290.921875 306.257812 290.265625 304.972656 289.460938 C 296.445312 284.050781 285.871094 296.304688 282.636719 302.914062 C 282.117188 303.988281 284.402344 304.101562 284.921875 304.003906 C 289.109375 303.285156 305.414062 293.550781 299.003906 288.832031 C 297.003906 287.363281 293.273438 289.945312 291.738281 290.808594 C 283.425781 295.492188 273.566406 303.804688 267.230469 310.921875 C 266.09375 312.191406 269.144531 312.328125 269.773438 312.132812 C 278.015625 309.5625 288.761719 303.769531 295.0625 297.8125 C 295.855469 297.074219 294.53125 296.527344 293.9375 296.480469 C 286.898438 295.9375 279.757812 300.691406 273.976562 304.113281 C 267.488281 307.945312 254.851562 314.007812 251.984375 321.210938 C 251.554688 322.285156 253.679688 322.433594 254.269531 322.296875 C 261.535156 320.667969 267.957031 316.292969 274.246094 312.414062 C 278.066406 310.054688 284.539062 307.832031 286.8125 303.792969 C 287.316406 302.902344 285.425781 302.65625 285.019531 302.65625 C 270.492188 302.679688 251.800781 313.8125 243.449219 325.472656 C 243.363281 325.632812 243.363281 325.804688 243.460938 325.96875 C 249.316406 333.207031 276.136719 314.664062 278.335938 309.746094 C 278.742188 308.84375 277.050781 308.585938 276.546875 308.609375 C 263.859375 309.390625 248.773438 318.222656 238.644531 325.289062 C 238.101562 325.671875 238.570312 326.175781 238.953125 326.398438 C 245.683594 330.242188 263.660156 315.539062 267.328125 311.367188 C 268.019531 310.574219 266.882812 310.09375 266.203125 310.03125 C 257.679688 309.203125 237.246094 318.753906 236.445312 328.277344 C 236.40625 328.734375 237.0625 328.945312 237.371094 329.054688 C 246.253906 332.179688 261.734375 320.953125 265.539062 313.75 C 265.921875 313.019531 264.660156 312.710938 264.226562 312.636719 C 254.714844 311.117188 232.75 322.25 232.269531 332.589844 C 232.242188 333.058594 232.875 333.242188 233.195312 333.367188 C 241.855469 336.515625 257.519531 328.90625 262.386719 321.53125 C 263.066406 320.507812 260.484375 320.40625 260.101562 320.445312 C 253.503906 321.074219 243.632812 325.734375 241.027344 332.121094 C 240.519531 333.367188 243.164062 333.292969 243.746094 333.109375 C 247.007812 332.105469 248.910156 329.859375 249.921875 326.546875 C 250.109375 325.953125 249.539062 325.683594 249.058594 325.523438 C 245.238281 324.300781 240.0625 326.472656 240.347656 331.019531 C 240.386719 331.636719 241.261719 331.796875 241.71875 331.882812 C 245.957031 332.636719 251.15625 330.957031 252.765625 326.597656 C 252.863281 326.335938 252.8125 326.066406 252.566406 325.894531 C 247.910156 322.472656 233.75 324.804688 232.550781 330.785156 C 232.566406 330.96875 232.652344 331.132812 232.8125 331.242188 C 236.210938 334.070312 241.980469 333.664062 245.625 331.277344 C 245.894531 331.09375 246.351562 330.773438 246.082031 330.378906 C 245.882812 330.082031 245.671875 329.773438 245.476562 329.476562 C 245.03125 328.820312 243.894531 328.746094 243.203125 328.871094 C 230.636719 331.132812 250.34375 344.792969 251.082031 331.265625 C 251.121094 330.6875 250.121094 330.453125 249.710938 330.402344 C 249.230469 330.339844 248.75 330.277344 248.265625 330.214844 C 247.539062 330.117188 246.464844 330.230469 246.019531 330.894531 C 245.179688 332.15625 245.238281 331.921875 245.785156 333.304688 C 245.945312 333.710938 246.710938 333.910156 247.082031 333.921875 C 250.640625 334.132812 253.160156 333.121094 254.863281 329.90625 C 255.332031 329.019531 253.515625 328.746094 253.074219 328.769531 C 249.6875 328.945312 247.820312 330.601562 246.289062 333.710938 C 245.769531 334.773438 248.058594 334.898438 248.574219 334.800781 C 253.53125 333.886719 257.867188 328.980469 261.238281 325.632812 C 260.113281 325.410156 258.988281 325.203125 257.867188 324.980469 C 256.246094 327.203125 252.601562 329.722656 253.011719 332.8125 C 253.148438 333.847656 255.097656 333.824219 255.789062 333.550781 C 259.421875 332.144531 262.621094 329.351562 264.609375 326.027344 C 264.757812 325.792969 264.609375 325.472656 264.414062 325.324219 C 259.324219 321.570312 249.75 324.792969 247.921875 330.6875 C 247.835938 330.945312 247.859375 331.21875 248.117188 331.390625 C 252.949219 334.566406 259.769531 331.625 263.535156 328.019531 C 264.128906 327.449219 263.425781 326.929688 262.855469 326.769531 C 256.59375 325.027344 240.867188 335.085938 243.734375 341.261719 C 244.054688 341.941406 245.425781 341.976562 246.007812 341.867188 C 250.75 340.976562 257.175781 336.207031 258.445312 331.613281 C 258.839844 330.179688 256.039062 330.464844 255.359375 330.773438 C 249.316406 333.527344 242.1875 339.703125 240.050781 346.265625 C 239.691406 347.363281 241.695312 347.476562 242.335938 347.351562 C 248.441406 346.175781 258.125 338.308594 259.238281 332.082031 C 259.398438 331.167969 257.273438 331.191406 256.890625 331.230469 C 251.417969 331.910156 242.632812 337.183594 243.832031 343.730469 C 244.03125 344.832031 245.859375 344.65625 246.613281 344.472656 C 252.925781 342.953125 260.953125 337.605469 264.214844 331.984375 C 264.722656 331.105469 262.832031 330.820312 262.425781 330.847656 C 256.347656 331.167969 249.390625 337.085938 246.957031 342.496094 C 246.550781 343.410156 248.253906 343.644531 248.75 343.632812 C 257.925781 343.324219 267.132812 335.863281 274.097656 330.363281 C 275.1875 329.5 272.949219 329.019531 272.480469 329.007812 C 264.117188 328.757812 251.960938 338.726562 245.871094 343.667969 C 244.660156 344.65625 247.476562 345.066406 247.96875 344.992188 C 260.582031 342.941406 272.640625 333.675781 282.980469 326.511719 C 284.390625 325.535156 280.707031 325.164062 280.078125 325.449219 C 272.121094 328.957031 261.226562 333.304688 255.417969 339.976562 C 254.578125 340.941406 256.347656 341.382812 257.039062 341.335938 C 265.597656 340.753906 274.074219 333.390625 281.175781 329.105469 C 283.980469 327.414062 302.15625 319.667969 300.96875 315.332031 C 300.808594 314.75 300.164062 314.515625 299.597656 314.464844 C 292.617188 313.921875 284.945312 317.714844 278.609375 320.125 C 269.28125 323.667969 260.484375 328.523438 252.652344 334.726562 C 251.441406 335.691406 254.246094 336.132812 254.753906 336.046875 C 261.757812 334.6875 268.082031 329.808594 274.222656 326.351562 C 282.5625 321.644531 291.605469 317.503906 299.375 311.957031 C 300.621094 311.070312 297.769531 310.539062 297.273438 310.636719 C 282.078125 313.859375 267.476562 323.65625 253.222656 329.734375 C 254.183594 330.09375 255.160156 330.4375 256.125 330.796875 C 263.128906 324.65625 271.308594 319.753906 279.300781 314.996094 C 282.476562 313.105469 285.6875 311.253906 288.910156 309.425781 C 289.292969 309.203125 299.25 304.878906 294.039062 304.261719 C 290.074219 303.792969 277.371094 314.257812 273.53125 316.429688 C 267.453125 319.851562 261.238281 323.210938 254.875 326.066406 C 255.839844 326.425781 256.816406 326.78125 257.78125 327.128906 C 264.609375 321.296875 272.148438 316.664062 279.917969 312.191406 C 282.140625 310.90625 297.683594 304.050781 298.089844 302.261719 C 298.609375 300.011719 290.960938 304.175781 290.292969 304.582031 C 286.996094 306.570312 283.710938 308.609375 280.386719 310.5625 C 274.011719 314.332031 266.882812 319.257812 259.621094 321 C 260.472656 321.410156 261.3125 321.816406 262.164062 322.210938 C 269.664062 314.492188 287.035156 303.792969 298.152344 302.0625 C 297.386719 301.703125 296.632812 301.335938 295.867188 300.976562 C 293.914062 306.941406 284.734375 312.117188 280.1875 315.703125 C 273.285156 321.148438 266.242188 326.25 259.164062 331.464844 C 257.902344 332.390625 261.289062 333.046875 262.066406 332.527344 C 268.28125 328.488281 274.234375 324.078125 280.644531 320.347656 C 283.746094 318.542969 286.898438 316.839844 290.121094 315.257812 C 291.851562 314.402344 299.398438 310.402344 298.203125 311.511719 C 292.988281 316.34375 284.871094 320.742188 279.003906 324.558594 C 272.800781 328.597656 266.304688 333.625 259.609375 336.851562 C 260.570312 337.207031 261.546875 337.566406 262.511719 337.914062 C 269.699219 332.578125 277.285156 327.96875 285.179688 323.757812 C 288.824219 321.816406 293.890625 320.445312 297.050781 317.949219 C 300.425781 315.28125 289.617188 322.027344 288.578125 322.742188 C 284.476562 325.546875 280.25 328.167969 276.0625 330.835938 C 269.539062 334.972656 263.03125 339.789062 255.925781 342.867188 C 256.890625 343.226562 257.867188 343.570312 258.828125 343.929688 C 268.824219 335.910156 283.09375 325.804688 295.730469 322.371094 C 294.878906 321.964844 294.039062 321.558594 293.1875 321.160156 C 280.511719 329.808594 266.21875 335.542969 252.910156 343.050781 C 253.875 343.410156 254.851562 343.757812 255.816406 344.113281 C 260.039062 341.234375 264.4375 338.628906 268.625 335.703125 C 269.949219 334.773438 266.464844 334.21875 265.722656 334.640625 C 259.3125 338.210938 247.785156 340.742188 243.609375 346.769531 C 243.4375 347.003906 243.632812 347.3125 243.808594 347.476562 C 249.105469 352.179688 258.621094 344.671875 263.054688 342.25 C 270.835938 338.011719 278.867188 334.230469 286.785156 330.253906 C 291.480469 327.90625 298.980469 325.410156 302.734375 321.507812 C 303.933594 320.273438 300.785156 320.113281 300.191406 320.296875 C 292.507812 322.65625 284.5 326.003906 277.632812 330.144531 C 277.261719 330.363281 276.816406 330.921875 277.359375 331.265625 C 284.214844 335.566406 301.351562 324.769531 304.648438 319.359375 C 304.738281 319.199219 304.738281 319.023438 304.636719 318.863281 C 300.660156 311.796875 286.230469 321.644531 283.660156 325.84375 C 282.945312 327.03125 285.933594 326.957031 286.378906 326.832031 C 293.285156 324.964844 301.339844 317.765625 307.195312 313.589844 C 308.542969 312.625 304.984375 312.15625 304.292969 312.527344 C 300.929688 314.269531 297.683594 316.160156 294.902344 318.753906 C 293.65625 319.914062 297.101562 320.273438 297.804688 319.816406 C 299.855469 318.480469 300.84375 317.394531 301.351562 314.910156 C 301.460938 314.332031 300.3125 314.109375 299.980469 314.046875 C 284.859375 311.476562 264.003906 327.265625 255.136719 337.9375 C 254.046875 339.246094 257.011719 339.359375 257.679688 339.148438 C 268.488281 335.800781 278.433594 325.363281 287.328125 318.59375 C 288.589844 317.640625 285.191406 317.011719 284.425781 317.53125 C 278.832031 321.261719 274.035156 325.941406 268.6875 330.007812 C 269.75 330.304688 270.8125 330.585938 271.875 330.882812 C 276.964844 326.535156 290.28125 318.925781 291.554688 312.453125 C 291.742188 311.539062 289.578125 311.5625 289.207031 311.601562 C 278.039062 312.984375 268.195312 322.753906 259.359375 328.96875 C 260.421875 329.265625 261.484375 329.550781 262.546875 329.847656 C 267.847656 326.089844 272.195312 321.335938 277.964844 318.210938 C 279.769531 317.234375 276.371094 316.394531 275.347656 316.949219 C 269.378906 320.1875 264.859375 325.066406 259.359375 328.96875 C 258.101562 329.859375 261.609375 330.5 262.546875 329.847656 C 264.90625 328.179688 285.402344 312.664062 286.601562 314.613281 C 286.75 314.863281 270.097656 328.796875 268.675781 330.007812 C 267.414062 331.082031 271.011719 331.539062 271.863281 330.882812 C 277.003906 326.980469 281.671875 322.359375 287.035156 318.789062 C 286.070312 318.429688 285.09375 318.085938 284.128906 317.726562 C 275.890625 323.992188 265.761719 334.515625 255.789062 337.605469 C 256.644531 338.011719 257.484375 338.417969 258.335938 338.816406 C 261.683594 334.789062 266.4375 330.984375 270.601562 327.855469 C 275.507812 324.175781 280.695312 320.964844 286.476562 318.800781 C 287.761719 318.394531 289.046875 317.988281 290.332031 317.578125 C 293.097656 315.429688 294.707031 315.761719 295.175781 318.578125 C 296.136719 318.9375 297.113281 319.296875 298.078125 319.640625 C 299.425781 318.394531 305.898438 314.316406 306.898438 313.800781 C 305.933594 313.441406 304.957031 313.09375 303.996094 312.738281 C 298.460938 316.691406 291.046875 323.519531 284.488281 325.289062 C 285.390625 325.621094 286.304688 325.953125 287.207031 326.277344 C 288.464844 324.929688 289.863281 323.757812 291.382812 322.753906 C 292.628906 323.199219 293.863281 323.632812 295.113281 324.078125 C 294.617188 325.4375 288.230469 327.621094 286.722656 328.238281 C 283.785156 329.449219 280.5 330.796875 285.453125 328.550781 C 290.851562 326.101562 296.386719 323.59375 302.054688 321.851562 C 301.203125 321.445312 300.363281 321.039062 299.511719 320.644531 C 295.804688 324.472656 288.847656 326.648438 284.128906 329.007812 C 277.371094 332.378906 270.554688 335.628906 263.859375 339.148438 C 261.128906 340.582031 258.359375 342.519531 255.542969 343.707031 C 254.257812 344.25 247.316406 347.734375 251.269531 344.4375 C 255.566406 340.851562 263.351562 338.652344 268.316406 335.898438 C 267.355469 335.542969 266.378906 335.183594 265.414062 334.835938 C 261.25 337.753906 256.804688 340.382812 252.601562 343.25 C 251.292969 344.140625 254.753906 344.746094 255.507812 344.3125 C 269.007812 336.691406 283.476562 330.820312 296.347656 322.039062 C 297.757812 321.074219 294.285156 320.691406 293.804688 320.828125 C 280.585938 324.421875 266.21875 334.539062 255.59375 343.0625 C 254.183594 344.1875 257.914062 344.386719 258.496094 344.125 C 272.863281 337.902344 288.9375 327.226562 300.648438 316.800781 C 301.488281 316.046875 300.054688 315.554688 299.523438 315.464844 C 295.433594 314.835938 290.257812 318.53125 286.871094 320.246094 C 277.222656 325.113281 267.957031 330.613281 259.273438 337.046875 C 257.890625 338.074219 261.523438 338.433594 262.175781 338.109375 C 270.183594 334.257812 277.59375 328.5 285.007812 323.558594 C 291.519531 319.222656 299.027344 315.023438 304.367188 309.300781 C 305.390625 308.203125 302.894531 307.867188 302.265625 307.980469 C 286.636719 310.980469 272.417969 322.753906 259.398438 331.242188 C 260.359375 331.601562 261.335938 331.945312 262.300781 332.304688 C 270.34375 326.386719 278.347656 320.507812 286.179688 314.304688 C 290.515625 310.871094 297.558594 306.894531 299.363281 301.382812 C 299.722656 300.273438 297.71875 300.199219 297.078125 300.296875 C 284.773438 302.210938 267.414062 312.5625 258.902344 321.320312 C 257.679688 322.582031 260.890625 322.667969 261.449219 322.53125 C 275.71875 319.097656 289.378906 307.746094 301.882812 300.457031 C 303.734375 299.382812 300.214844 298.765625 299.265625 299.195312 C 283.671875 306.363281 267.648438 315.046875 254.542969 326.226562 C 253.160156 327.398438 256.851562 327.5625 257.445312 327.289062 C 272.160156 320.691406 285.453125 311.5625 299.558594 303.878906 C 301.425781 302.867188 297.90625 302.199219 296.941406 302.617188 C 281.757812 309.351562 265.402344 318.914062 252.886719 329.894531 C 251.503906 331.105469 255.222656 331.203125 255.789062 330.957031 C 264.414062 327.289062 272.914062 323.335938 281.414062 319.394531 C 283.300781 318.519531 289.292969 316.714844 290.417969 314.503906 C 289.664062 315.996094 280.472656 319.9375 278.929688 320.816406 C 273.023438 324.164062 262.671875 327.414062 258.3125 332.515625 C 255.789062 335.46875 266.574219 328.214844 267.722656 327.5625 C 272.46875 324.867188 277.261719 322.839844 282.402344 320.9375 C 284.871094 320.023438 291.53125 316.367188 293.679688 317.148438 C 297.25 318.429688 293.160156 318.875 291.269531 320.183594 C 284.847656 324.667969 277.558594 328.253906 270.8125 332.242188 C 268.886719 333.378906 256.332031 340.816406 262.832031 337.171875 C 269.304688 333.550781 275.839844 329.660156 282.636719 326.671875 C 281.671875 326.3125 280.695312 325.96875 279.730469 325.609375 C 275.050781 328.84375 269.789062 332.070312 264.957031 335.058594 C 262.648438 336.492188 254.53125 339.347656 253.753906 341.285156 C 254.210938 340.148438 259.210938 337.753906 259.917969 337.308594 C 260.929688 336.664062 270.539062 331.070312 266.957031 332.796875 C 263.152344 334.625 259.769531 337.183594 256 339.125 C 253.34375 340.484375 248.378906 344.101562 253.886719 338.121094 C 254.742188 337.195312 262.871094 330.859375 258.753906 333.8125 C 253.949219 337.257812 250.910156 341.382812 244.683594 342.890625 C 245.609375 343.136719 246.539062 343.386719 247.464844 343.632812 C 246.660156 339.285156 253.9375 334.9375 251.070312 338.136719 C 248.824219 340.644531 244.722656 344.878906 241.273438 345.546875 C 242.039062 345.90625 242.792969 346.277344 243.558594 346.632812 C 245.488281 340.703125 252.429688 334.480469 257.925781 331.972656 C 256.902344 331.6875 255.863281 331.414062 254.839844 331.128906 C 254.320312 332.984375 248.722656 338.777344 248.601562 337.382812 C 248.488281 336.121094 253.121094 332.601562 254.046875 331.824219 C 262.484375 324.683594 256.074219 331.082031 253.851562 331.945312 C 254.777344 332.191406 255.703125 332.441406 256.628906 332.6875 C 256.308594 330.304688 259.941406 327.300781 261.363281 325.347656 C 262.140625 324.273438 258.621094 324.066406 257.988281 324.695312 C 255.53125 327.140625 251.183594 332.292969 247.511719 332.972656 C 248.277344 333.328125 249.03125 333.699219 249.796875 334.058594 C 250.464844 333.132812 251.121094 332.21875 251.789062 331.292969 C 239.199219 329.464844 236.222656 328.042969 242.84375 327.03125 C 247.253906 324.65625 246.414062 330.054688 241.832031 331.464844 C 242.730469 331.796875 243.648438 332.132812 244.546875 332.453125 C 246.757812 327.042969 255.492188 322.632812 261.078125 322.101562 C 260.3125 321.742188 259.558594 321.371094 258.792969 321.011719 C 255.9375 325.335938 248.058594 330.230469 242.855469 330.613281 C 234.972656 331.191406 240.199219 325.585938 244.164062 322.457031 C 246.191406 320.851562 261.003906 312.378906 259.769531 315.703125 C 258.371094 319.457031 249.082031 325.570312 244.96875 326.042969 C 241.460938 326.4375 240.804688 326.78125 243.203125 323.25 C 244.683594 321.0625 248.425781 319.023438 250.503906 317.714844 C 251.441406 317.121094 261.039062 311.476562 261.671875 312.390625 C 262.054688 312.945312 261.90625 312.117188 260.089844 313.785156 C 257.199219 316.453125 253.394531 318.445312 250.046875 320.519531 C 246.859375 322.507812 242.101562 325.078125 249.972656 321.570312 C 255.222656 319.234375 260.113281 316.070312 265.363281 313.738281 C 275.160156 309.375 271.960938 312.476562 266.007812 316.34375 C 264.128906 317.566406 248.230469 327.90625 249.8125 322.210938 C 251.269531 316.960938 280.5 304.632812 280.621094 305.175781 C 281.191406 307.621094 256.246094 319.789062 253.234375 320.46875 C 254 320.839844 254.753906 321.199219 255.519531 321.558594 C 256.828125 318.257812 261.792969 315.601562 264.476562 313.652344 C 270.007812 309.597656 275.519531 305.609375 281.636719 302.457031 C 286.105469 300.160156 294.519531 296.144531 284.5625 301.554688 C 279.199219 304.472656 273.714844 308.671875 267.859375 310.5 C 268.710938 310.90625 269.550781 311.316406 270.40625 311.710938 C 274.765625 306.820312 280.84375 302.804688 285.945312 298.640625 C 287.316406 297.527344 294.371094 290.328125 295.507812 293.648438 C 296.519531 296.640625 283.203125 302.273438 283.90625 302.160156 C 284.671875 302.519531 285.425781 302.890625 286.191406 303.25 C 287.21875 301.160156 289.230469 299.210938 290.714844 297.441406 C 295.324219 291.945312 305.414062 274.488281 300.796875 293.042969 C 301.992188 292.945312 303.203125 292.835938 304.402344 292.734375 C 304.179688 290.945312 303.96875 289.152344 303.75 287.363281 C 302.5625 287.386719 301.386719 287.398438 300.203125 287.425781 C 299.5 288.226562 298.808594 289.015625 298.101562 289.820312 C 297.347656 290.214844 296.609375 290.597656 295.855469 290.992188 C 289.355469 294.34375 290.34375 293.464844 298.808594 288.351562 C 298.855469 289.140625 298.917969 289.945312 298.96875 290.734375 C 295.101562 296.21875 289.417969 297.144531 281.917969 293.527344 C 283.585938 289.609375 286.058594 289.214844 289.320312 292.316406 C 301.277344 297.394531 281.894531 301.804688 282.5 294.824219 C 283.019531 288.929688 290.851562 286.78125 282.808594 294.453125 C 279.175781 297.910156 255.628906 316.664062 251.921875 306.585938 C 250.132812 301.691406 269.863281 289.945312 259.621094 303.519531 C 257.617188 306.175781 253.617188 311.242188 250.367188 312.984375 C 234.589844 311.054688 230.167969 310.375 237.074219 310.921875 C 239.273438 310.539062 239.53125 311.144531 237.878906 312.734375 C 237.308594 307.695312 238.644531 306.660156 241.867188 309.648438 C 246.375 310.785156 246.140625 312.898438 241.175781 315.960938 C 234.566406 317.269531 241.953125 308.957031 243.164062 307.808594 C 248.058594 303.988281 253.53125 301.753906 259.582031 301.097656 C 259.941406 303.296875 260.3125 305.496094 260.671875 307.695312 C 258.1875 309.550781 255.332031 310.054688 252.121094 309.214844 C 253.308594 307.695312 254.492188 306.164062 255.691406 304.644531 C 258.730469 301.085938 276.125 282.46875 280.648438 287.375 C 281.425781 288.300781 284.957031 287.707031 283.808594 286.460938 Z M 283.808594 286.460938 " fill-opacity="1" fill-rule="nonzero"/><path fill="#e8c187" d="M 297.078125 300.554688 C 298.3125 302.679688 296.890625 305.300781 295.78125 307.175781 C 294.890625 308.660156 293.050781 311.882812 291.566406 312.761719 C 292.617188 312.957031 293.667969 313.15625 294.71875 313.355469 C 294.742188 310.871094 296.65625 307.90625 298.015625 305.964844 C 299.585938 303.742188 302.648438 299.925781 305.367188 299.160156 C 306.773438 298.109375 306.714844 298.777344 305.195312 301.148438 C 304.710938 301.988281 304.191406 302.816406 303.660156 303.621094 C 302.699219 305.015625 301.625 306.324219 300.425781 307.523438 C 299.546875 308.398438 298.609375 309.277344 297.597656 309.980469 C 297.359375 311.203125 297.410156 311.09375 297.730469 309.636719 C 297.832031 309.316406 297.980469 309.019531 298.140625 308.746094 C 299.351562 306.214844 302.304688 303.457031 304.589844 301.765625 C 305.972656 300.742188 307.441406 300.050781 308.972656 299.269531 C 309.691406 299.023438 310.34375 298.679688 310.960938 298.234375 C 310.246094 298.109375 309.777344 298.308594 309.578125 298.851562 C 308.121094 300.40625 307.035156 302.101562 305.402344 303.546875 C 304.453125 304.386719 299.992188 308.117188 298.769531 308.214844 C 299.363281 308.425781 299.957031 308.648438 300.5625 308.859375 C 299.335938 307.066406 302.945312 304.1875 304.03125 303.296875 C 304.636719 302.804688 308.246094 299.617188 308.8125 299.789062 C 310.480469 300.273438 306.390625 304.136719 305.859375 304.582031 C 304.058594 306.066406 302.066406 307.84375 300.042969 309.03125 C 301.066406 309.316406 302.105469 309.585938 303.128906 309.871094 C 304.28125 308.117188 305.996094 306.894531 307.429688 305.398438 C 307.910156 304.890625 309.296875 304.609375 308.070312 304.324219 C 307.035156 304.089844 306.664062 305.324219 305.972656 306.039062 C 304.6875 307.375 302.871094 308.929688 301.253906 309.757812 C 300.226562 310.289062 300.203125 310.785156 300.648438 309.683594 C 301.03125 308.734375 302.128906 307.820312 302.882812 307.140625 C 303.511719 306.570312 307.320312 303.296875 307.875 303.570312 C 309.640625 304.433594 301.609375 311.613281 300.140625 312.378906 C 301.167969 312.664062 302.203125 312.933594 303.230469 313.21875 C 303.824219 311.242188 305.921875 308.574219 307.835938 307.585938 C 306.875 307.535156 305.910156 307.5 304.945312 307.449219 C 306.207031 308.535156 301.191406 315.058594 300.523438 316.171875 C 299.695312 317.542969 303.378906 317.183594 303.894531 316.824219 C 305.5625 315.6875 306.714844 314.15625 308.058594 312.6875 C 306.910156 312.550781 305.773438 312.414062 304.625 312.28125 C 304.367188 312.847656 304.105469 313.402344 303.847656 313.972656 C 303.128906 314.949219 306.652344 315.417969 307.40625 314.402344 C 308.207031 313.316406 308.035156 313.5625 308.308594 312.230469 C 308.542969 311.019531 305.355469 311.292969 304.871094 311.824219 C 303.511719 313.292969 302.378906 314.8125 300.710938 315.960938 C 301.832031 316.183594 302.957031 316.394531 304.082031 316.617188 C 305.242188 314.6875 310.617188 308.636719 308.109375 306.484375 C 307.40625 305.878906 305.996094 305.953125 305.21875 306.351562 C 302.882812 307.546875 300.425781 310.304688 299.671875 312.8125 C 299.25 314.21875 302.105469 313.996094 302.761719 313.652344 C 305.292969 312.328125 313.765625 305.953125 311.53125 302.507812 C 309.046875 298.703125 302.625 303.929688 300.648438 305.507812 C 298.671875 307.078125 293.753906 312.886719 299.484375 312.859375 C 303.351562 312.847656 310.171875 307.449219 311.273438 303.792969 C 311.359375 303.507812 311.320312 303.285156 311.074219 303.089844 C 307.269531 299.964844 301.375 306.734375 299.558594 309.476562 C 298.769531 310.671875 302.15625 310.597656 302.648438 310.316406 C 305.859375 308.449219 310.046875 305.449219 312.125 302.335938 C 313.828125 299.777344 313 297.664062 309.839844 297.578125 C 306.144531 297.480469 294.1875 305.335938 297.003906 309.449219 C 297.347656 309.957031 298.214844 310.140625 298.792969 310.09375 C 301.882812 309.847656 318.117188 298.183594 311.777344 296.429688 C 310.136719 295.972656 309.011719 296.777344 307.613281 297.46875 C 304.945312 298.800781 302.625 299.816406 300.339844 301.804688 C 298.71875 303.210938 291.753906 309.226562 294.085938 312.167969 C 298.003906 317.121094 313.074219 300.925781 308.988281 297.21875 C 306.195312 294.6875 301.140625 298.839844 299.203125 300.457031 C 295.667969 303.386719 291.109375 308.621094 291.046875 313.464844 C 291.035156 314.640625 293.59375 314.429688 294.199219 314.058594 C 296.421875 312.738281 298.277344 309.535156 299.535156 307.3125 C 300.769531 305.140625 301.992188 302.410156 300.621094 300.050781 C 300.003906 298.9375 296.410156 299.394531 297.078125 300.554688 Z M 297.078125 300.554688 " fill-opacity="1" fill-rule="nonzero"/><path fill="#e8c187" d="M 257.394531 341.71875 C 266.835938 353.863281 278.015625 366.855469 294.59375 358.0625 C 302.105469 354.082031 302.933594 344.496094 303.390625 336.851562 C 303.75 330.871094 305.070312 317.503906 300.277344 312.921875 C 299.632812 312.316406 297.695312 312.253906 297.101562 312.972656 C 296.976562 313.121094 296.867188 313.269531 296.742188 313.414062 C 295.667969 314.738281 299.203125 315.195312 299.929688 314.292969 C 300.054688 314.144531 300.164062 313.996094 300.289062 313.847656 C 299.226562 313.859375 298.175781 313.886719 297.113281 313.898438 C 299.425781 316.109375 299.277344 322.472656 299.558594 325.410156 C 300.089844 330.835938 300.078125 336.554688 299.289062 341.953125 C 298.832031 345.089844 298.238281 348.710938 296.792969 351.5625 C 295.953125 353.847656 294.347656 355.601562 291.976562 356.800781 C 286.082031 356.589844 280.203125 356.371094 274.308594 356.160156 C 268.710938 353.195312 264.746094 346.054688 260.941406 341.160156 C 260.175781 340.1875 256.644531 340.742188 257.394531 341.71875 Z M 257.394531 341.71875 " fill-opacity="1" fill-rule="nonzero"/><path fill="#e8c187" d="M 269.578125 21.488281 C 269.480469 21.425781 269.367188 21.351562 269.269531 21.292969 C 268.429688 20.761719 266.511719 20.539062 265.910156 21.5625 C 263.84375 25.070312 262.648438 28.742188 261.398438 32.582031 C 260.890625 34.140625 259.792969 36.066406 260.90625 37.5625 C 261.496094 38.363281 263.191406 38.4375 263.980469 37.917969 C 267.316406 35.707031 268.898438 31.234375 270.503906 27.726562 C 271.839844 24.847656 275.285156 19.449219 274.40625 16.117188 C 274.097656 14.953125 271.675781 14.953125 270.972656 15.707031 C 268.242188 18.636719 266.785156 22.550781 265.117188 26.121094 C 263.164062 30.308594 260.3125 34.289062 258.867188 38.683594 C 258.382812 40.144531 261.621094 39.910156 262.238281 39.339844 C 264.105469 37.621094 265.054688 34.558594 266.242188 32.347656 C 268.34375 28.40625 269.789062 24.183594 271.824219 20.21875 C 272.457031 18.992188 268.886719 18.757812 268.269531 19.785156 C 265.957031 23.6875 263.871094 27.691406 261.980469 31.816406 C 261.335938 33.210938 264.90625 33.050781 265.539062 32.25 C 267.613281 29.605469 268.6875 26.605469 269.699219 23.417969 C 270.292969 21.539062 271.34375 19.796875 270.777344 17.882812 C 270.515625 17.015625 268.613281 17.238281 268.058594 17.375 C 263.214844 18.585938 259.757812 28.507812 260.90625 32.953125 C 261.25 34.273438 264.871094 33.980469 264.585938 32.890625 C 263.785156 29.839844 266.15625 19.882812 269.9375 18.933594 C 269.035156 18.757812 268.132812 18.597656 267.21875 18.425781 C 267.722656 20.144531 265.980469 23.550781 265.414062 25.160156 C 264.5625 27.578125 263.5625 29.789062 261.980469 31.816406 C 263.164062 31.964844 264.351562 32.101562 265.539062 32.25 C 267.425781 28.125 269.515625 24.121094 271.824219 20.21875 C 270.640625 20.070312 269.453125 19.933594 268.269531 19.785156 C 266.464844 23.304688 265.191406 27.046875 263.386719 30.582031 C 262.203125 32.917969 260.964844 36.707031 259.050781 38.464844 C 260.175781 38.683594 261.300781 38.894531 262.425781 39.117188 C 263.722656 35.214844 266.191406 31.65625 267.996094 27.988281 C 269.863281 24.21875 271.257812 19.722656 274.171875 16.585938 C 273.023438 16.449219 271.886719 16.3125 270.738281 16.175781 C 271.417969 18.757812 268.800781 23.167969 267.75 25.515625 C 266.242188 28.890625 264.5625 34.535156 261.363281 36.660156 C 262.386719 36.78125 263.414062 36.894531 264.4375 37.019531 C 263.414062 35.632812 265.328125 31.753906 265.785156 30.320312 C 266.734375 27.394531 267.898438 24.652344 269.464844 21.996094 C 268.34375 22.082031 267.230469 22.179688 266.105469 22.265625 C 266.203125 22.328125 266.316406 22.402344 266.414062 22.464844 C 267.378906 23.070312 270.875 22.304688 269.578125 21.488281 Z M 269.578125 21.488281 " fill-opacity="1" fill-rule="nonzero"/><path fill="#e8c187" d="M 272.8125 14.535156 C 269.390625 13.484375 266.847656 16.449219 265.289062 19.15625 C 263.535156 22.21875 262.265625 26.011719 261.238281 29.382812 C 260.671875 31.222656 259.609375 34.089844 260.152344 36.003906 C 260.460938 37.078125 262.089844 36.957031 262.929688 36.746094 C 268.070312 35.460938 282.425781 14.65625 273.742188 14.3125 C 270.183594 14.164062 267.796875 18.214844 266.167969 20.808594 C 263.621094 24.875 259.667969 31.089844 260.164062 36.015625 C 260.261719 37.054688 262.277344 37.03125 262.941406 36.757812 C 266.921875 35.152344 269.09375 28.308594 270.75 24.652344 C 271.800781 22.328125 274.679688 17.066406 270.910156 15.78125 C 263.710938 13.324219 259.570312 31.015625 258.261719 34.558594 C 257.765625 35.894531 261.398438 36.128906 261.820312 34.992188 C 263.832031 29.507812 265.488281 23.417969 268.972656 18.597656 C 270.714844 16.191406 268.726562 20.289062 268.429688 21.179688 C 267.910156 22.75 267.179688 24.21875 266.453125 25.703125 C 265.613281 27.445312 264.699219 29.136719 263.785156 30.839844 C 263.214844 31.902344 262.238281 34.71875 261.054688 35.203125 C 261.980469 35.449219 262.90625 35.695312 263.832031 35.941406 C 263.300781 30.53125 268.292969 22.636719 271.675781 18.414062 C 271.886719 18.140625 272.589844 17.003906 273 16.90625 C 273.554688 16.757812 272.988281 17.128906 272.902344 17.90625 C 272.703125 19.796875 271.8125 21.699219 270.949219 23.378906 C 269.046875 27.097656 265.414062 34.078125 261.039062 35.164062 C 261.96875 35.410156 262.894531 35.660156 263.820312 35.90625 C 262.929688 32.78125 265.304688 28.269531 266.378906 25.453125 C 267.042969 23.6875 267.625 21.847656 268.492188 20.15625 C 268.6875 19.757812 271.132812 16.152344 270.972656 16.101562 C 272.28125 16.546875 275.113281 15.238281 272.8125 14.535156 Z M 272.8125 14.535156 " fill-opacity="1" fill-rule="nonzero"/><g clip-path="url(#6aec2ee649)"><path fill="#e8c187" d="M 158.144531 37.078125 C 158.023438 37.328125 157.898438 37.574219 157.785156 37.820312 C 158.972656 37.796875 160.160156 37.785156 161.332031 37.757812 C 158.058594 31.382812 156.773438 24.230469 154.453125 17.488281 C 153.574219 14.917969 152.5625 8.960938 149.1875 8.46875 C 148.742188 8.40625 146.742188 8.492188 146.878906 9.394531 C 148.460938 20.277344 153.832031 30.867188 154.378906 41.847656 C 155.574219 41.75 156.785156 41.636719 157.984375 41.539062 C 156.5625 36.855469 155.882812 31.964844 154.425781 27.28125 C 152.90625 22.390625 150.832031 17.695312 149.398438 12.769531 C 148.210938 12.953125 147.039062 13.136719 145.851562 13.324219 C 147.632812 18.636719 148.3125 24.109375 149.558594 29.542969 C 150.644531 34.289062 152.003906 38.871094 152.648438 43.714844 C 153.847656 43.613281 155.058594 43.503906 156.253906 43.40625 C 153.476562 35.027344 149.878906 27.136719 146.742188 18.917969 C 146.324219 17.820312 142.738281 18.09375 143.195312 19.476562 C 145.617188 26.652344 149.363281 33.1875 151.5 40.527344 C 151.796875 41.550781 155.292969 41.367188 155.105469 40.21875 C 154.328125 35.289062 153.699219 30.371094 152.757812 25.453125 C 152.460938 23.886719 150.4375 17.3125 152.066406 16.175781 C 151.003906 16.191406 149.953125 16.214844 148.890625 16.226562 C 153.289062 20.882812 157.167969 30.851562 156.316406 37.238281 C 157.539062 37.214844 158.773438 37.203125 160 37.179688 C 159.183594 30.011719 157.539062 22.933594 156.710938 15.855469 C 155.515625 15.953125 154.304688 16.066406 153.105469 16.164062 C 155.625 23.824219 157.429688 32.050781 158.566406 40.042969 C 158.75 41.367188 162.417969 41.179688 162.246094 39.984375 C 161.085938 31.804688 159.21875 23.476562 156.636719 15.621094 C 156.304688 14.621094 152.894531 14.757812 153.03125 15.929688 C 153.859375 23.019531 155.5 30.085938 156.316406 37.253906 C 156.464844 38.550781 159.824219 38.464844 160 37.191406 C 160.914062 30.320312 156.664062 20.144531 152.054688 15.25 C 151.324219 14.484375 149.632812 14.78125 148.878906 15.300781 C 146.828125 16.734375 148.335938 21.527344 148.695312 23.476562 C 149.695312 29.074219 150.546875 34.65625 151.4375 40.265625 C 152.636719 40.167969 153.847656 40.054688 155.042969 39.957031 C 152.90625 32.632812 149.164062 26.085938 146.742188 18.90625 C 145.554688 19.09375 144.382812 19.277344 143.195312 19.464844 C 146.335938 27.679688 149.929688 35.574219 152.710938 43.949219 C 153.042969 44.949219 156.476562 44.8125 156.316406 43.640625 C 155.589844 38.066406 153.882812 32.753906 152.757812 27.269531 C 151.757812 22.378906 150.980469 17.511719 149.386719 12.769531 C 149.015625 11.65625 145.433594 11.902344 145.839844 13.324219 C 147.273438 18.253906 149.363281 22.933594 150.867188 27.839844 C 152.3125 32.535156 153.007812 37.402344 154.425781 42.09375 C 154.734375 43.109375 158.097656 42.984375 158.035156 41.785156 C 157.492188 30.816406 152.117188 20.179688 150.535156 9.332031 C 149.769531 9.640625 148.992188 9.949219 148.226562 10.261719 C 148.558594 10.308594 151.4375 19.597656 151.894531 21.019531 C 153.746094 26.851562 154.96875 32.828125 157.785156 38.316406 C 158.28125 39.277344 160.863281 39.214844 161.332031 38.253906 C 161.457031 38.007812 161.578125 37.757812 161.691406 37.511719 C 162.296875 36.289062 158.6875 35.96875 158.144531 37.078125 Z M 158.144531 37.078125 " fill-opacity="1" fill-rule="nonzero"/></g><path fill="#e8c187" d="M 71.777344 77.117188 C 74.980469 78.613281 78.003906 80.429688 81.179688 81.960938 C 84.269531 83.441406 89.113281 84.109375 91.753906 86.171875 C 92.398438 86.679688 94.238281 86.296875 92.546875 88.136719 C 91.347656 89.433594 83.640625 85.34375 82.082031 84.382812 C 79.300781 82.664062 75.3125 80.464844 73.433594 77.671875 C 72.410156 77.996094 71.394531 78.304688 70.371094 78.625 C 73.742188 80.253906 76.96875 82.058594 80.230469 83.886719 C 83.167969 85.53125 87.28125 86.285156 89.777344 88.558594 C 90.136719 88.101562 90.496094 87.640625 90.851562 87.183594 C 84.6875 87.9375 76.289062 80.722656 71.851562 77.066406 C 70.902344 77.449219 69.9375 77.847656 68.988281 78.230469 C 72.667969 80.105469 76.300781 82.070312 80.054688 83.789062 C 81.722656 84.542969 83.402344 85.308594 85.085938 86.023438 C 84.972656 85.976562 88.875 87.371094 87.234375 87.257812 C 83.589844 87.011719 79.882812 83.675781 76.398438 82.539062 C 75.820312 82.355469 73.113281 82.453125 73.71875 83.628906 C 74.570312 85.308594 76.164062 86.0625 77.746094 87 C 81.527344 89.234375 85.292969 91.386719 89.308594 93.175781 C 89.570312 92.65625 89.828125 92.140625 90.101562 91.621094 C 89.507812 91.71875 87.578125 90.742188 87.035156 90.558594 C 84.195312 89.558594 81.539062 88.296875 78.84375 86.964844 C 75.535156 85.320312 72.308594 83.542969 68.777344 82.417969 C 68.183594 82.230469 65.019531 82.578125 66.28125 83.714844 C 69.394531 86.507812 73.605469 88.125 77.339844 89.929688 C 79.734375 91.089844 82.15625 92.152344 84.613281 93.175781 C 85.617188 93.597656 88.46875 94.339844 89.273438 95.328125 C 90.074219 96.289062 93.582031 95.710938 92.816406 94.769531 C 91.0625 92.644531 87.46875 92.027344 85.058594 90.976562 C 79.980469 88.765625 73.59375 86.480469 69.433594 82.75 C 68.605469 83.183594 67.765625 83.617188 66.9375 84.046875 C 72.59375 85.851562 77.597656 89.324219 83.144531 91.449219 C 85.640625 92.410156 88.371094 93.820312 91.101562 93.386719 C 91.867188 93.261719 93.164062 92.410156 91.890625 91.832031 C 88.949219 90.507812 86.183594 89.027344 83.390625 87.40625 C 81.5 86.308594 78.300781 85.121094 77.265625 83.085938 C 76.375 83.441406 75.472656 83.8125 74.582031 84.171875 C 78.179688 85.332031 86.589844 91.90625 90.59375 89.0625 C 92.347656 87.816406 91.632812 86.714844 90.074219 85.652344 C 88.011719 84.246094 84.9375 83.492188 82.652344 82.453125 C 78.894531 80.75 75.25 78.773438 71.582031 76.894531 C 70.878906 76.535156 67.382812 76.957031 68.714844 78.054688 C 74.78125 83.058594 83.539062 89.964844 91.890625 88.953125 C 92.484375 88.878906 93.769531 88.308594 92.964844 87.582031 C 90.632812 85.457031 87.28125 84.8125 84.492188 83.429688 C 80.585938 81.503906 76.894531 79.179688 72.964844 77.277344 C 72.457031 77.03125 69.085938 77.007812 69.902344 78.230469 C 72.941406 82.738281 80.070312 86.777344 85.046875 88.679688 C 89.40625 90.359375 94.769531 90.855469 98.6875 88.039062 C 98.871094 87.902344 99.03125 87.53125 98.859375 87.320312 C 96.808594 84.824219 92.902344 84.34375 89.988281 83.21875 C 84.554688 81.132812 79.625 78.230469 74.359375 75.769531 C 73.3125 75.289062 69.925781 76.253906 71.777344 77.117188 Z M 71.777344 77.117188 " fill-opacity="1" fill-rule="nonzero"/><path fill="#e8c187" d="M 41.105469 152.574219 C 38.730469 151.96875 38.671875 151.941406 36.222656 151.757812 C 35.878906 151.734375 33.210938 151.96875 33.976562 152.929688 C 36.125 155.613281 38.855469 156.910156 41.882812 158.453125 C 47.921875 161.527344 54.050781 164.507812 59.808594 168.078125 C 60.847656 168.65625 61.835938 169.3125 62.796875 170.015625 C 63.476562 171.140625 63.191406 171.4375 61.945312 170.894531 C 60.054688 171.671875 54.433594 169.140625 52.347656 168.519531 C 46.15625 166.667969 38.421875 164.875 32.890625 161.332031 C 32.210938 161.789062 31.519531 162.257812 30.839844 162.714844 C 35.953125 163.640625 40.917969 165.519531 45.8125 167.238281 C 50 168.707031 55.300781 169.804688 58.84375 172.609375 C 59.203125 172.152344 59.5625 171.695312 59.917969 171.238281 C 55.855469 171.84375 49.789062 166.410156 46.503906 164.394531 C 42.832031 162.148438 38.410156 159.824219 35.273438 156.835938 C 34.320312 157.21875 33.359375 157.613281 32.40625 157.996094 C 41.152344 162.296875 50.59375 165.1875 59.695312 168.644531 C 60.425781 168.152344 61.167969 167.65625 61.894531 167.164062 C 52.332031 164.417969 45.082031 158.132812 36.238281 154.167969 C 35.621094 153.894531 32.59375 153.746094 33.171875 155.117188 C 34.71875 158.75 39.238281 160.703125 42.5 162.542969 C 48.851562 166.136719 56.917969 168.855469 62.316406 173.796875 C 63.167969 174.574219 66.703125 173.933594 65.480469 172.808594 C 61.613281 169.273438 56.214844 167.113281 51.617188 164.679688 C 47.097656 162.296875 38.855469 159.589844 36.71875 154.5625 C 35.691406 154.882812 34.679688 155.191406 33.65625 155.511719 C 42.710938 159.566406 50.285156 165.976562 60.054688 168.78125 C 60.957031 169.039062 64.121094 168.003906 62.265625 167.296875 C 53.210938 163.851562 43.660156 160.910156 34.976562 156.648438 C 34.285156 156.304688 30.8125 156.585938 32.109375 157.8125 C 36.570312 162.058594 42.820312 165.039062 48.085938 168.226562 C 52.097656 170.660156 56.066406 173.710938 60.921875 172.980469 C 61.4375 172.90625 62.871094 172.300781 61.996094 171.609375 C 58.757812 169.050781 54.210938 167.855469 50.34375 166.519531 C 44.230469 164.40625 38.152344 162.046875 31.777344 160.898438 C 31.246094 160.800781 28.453125 161.480469 29.726562 162.28125 C 36.410156 166.542969 45.179688 168.535156 52.71875 170.769531 C 56.941406 172.03125 63.464844 174.476562 67.738281 172.179688 C 68.011719 172.03125 68.480469 171.632812 68.195312 171.277344 C 65.503906 167.855469 61.128906 165.890625 57.410156 163.839844 C 51.492188 160.566406 41.820312 157.75 37.507812 152.351562 C 36.753906 152.746094 36.015625 153.128906 35.261719 153.523438 C 36.59375 153.734375 37.929688 153.957031 39.25 154.167969 C 40.574219 154.523438 43.425781 153.164062 41.105469 152.574219 Z M 41.105469 152.574219 " fill-opacity="1" fill-rule="nonzero"/><path fill="#e8c187" d="M 339.523438 57.128906 C 334.953125 59.339844 331.175781 64.9375 327.988281 68.777344 C 324.835938 72.558594 320.785156 76.535156 319.574219 81.390625 C 319.476562 81.8125 320.242188 82.097656 320.5 82.167969 C 325.195312 83.601562 329.703125 78.625 332.855469 75.90625 C 337.820312 71.621094 345.589844 63.886719 346.726562 57.140625 C 346.851562 56.414062 345.246094 56.226562 344.875 56.253906 C 340.15625 56.636719 336.015625 62.699219 333.1875 65.886719 C 330.445312 68.964844 322.589844 75.84375 322.539062 80.367188 C 322.527344 81.292969 324.367188 81.304688 324.886719 81.21875 C 329.765625 80.390625 333.359375 76.03125 336.277344 72.324219 C 338.820312 69.074219 345.183594 62.441406 344.664062 58.019531 C 344.539062 56.96875 342.5625 57.003906 341.882812 57.277344 C 337.4375 58.996094 334.398438 62.773438 331.222656 66.195312 C 327.492188 70.210938 324.035156 76.449219 319.523438 79.539062 C 320.585938 79.835938 321.648438 80.121094 322.710938 80.414062 C 326.246094 77.300781 329.023438 73.609375 331.53125 69.632812 C 333.964844 65.753906 337.179688 61.429688 338.054688 56.90625 C 338.300781 55.621094 335.113281 56.078125 334.621094 56.5 C 331.125 59.488281 328.269531 63.601562 325.417969 67.199219 C 323.082031 70.125 319.683594 73.039062 318.066406 76.375 C 317.425781 77.6875 320.609375 77.550781 321.15625 77.214844 C 327.566406 73.375 331.964844 64.691406 335.820312 58.597656 C 336.523438 57.5 332.953125 57.167969 332.261719 58.167969 C 330.011719 61.441406 327.53125 64.617188 325.34375 67.925781 C 324.378906 69.382812 323.441406 70.792969 325.070312 71.964844 C 328.738281 74.609375 336.25 66.863281 338.449219 65.046875 C 339.734375 63.996094 336.261719 63.527344 335.546875 63.984375 C 330.964844 66.863281 323.898438 72.890625 322.191406 78.230469 C 321.785156 79.515625 324.253906 79.390625 324.910156 79.21875 C 329.246094 78.117188 331.753906 74.175781 335.363281 71.769531 C 337.089844 70.621094 333.730469 69.851562 332.742188 70.507812 C 329.640625 72.582031 326.652344 76.734375 323.03125 77.660156 C 323.933594 77.996094 324.847656 78.328125 325.75 78.648438 C 327.292969 73.820312 333.953125 67.890625 338.179688 65.234375 C 337.214844 64.875 336.238281 64.515625 335.273438 64.171875 C 333.644531 65.503906 331.953125 66.753906 330.273438 68.023438 C 328.503906 69.359375 326.898438 71.25 328.914062 68.359375 C 331.175781 65.085938 333.570312 61.898438 335.832031 58.597656 C 334.644531 58.449219 333.460938 58.316406 332.273438 58.167969 C 330.320312 61.253906 328.628906 64.367188 326.367188 67.257812 C 324.316406 69.878906 321.488281 74.175781 318.535156 75.945312 C 319.5625 76.226562 320.597656 76.5 321.625 76.785156 C 323.242188 73.449219 327.578125 69.320312 329.890625 66.492188 C 332.371094 63.441406 334.832031 59.921875 337.820312 57.363281 C 336.671875 57.226562 335.535156 57.09375 334.386719 56.957031 C 333.59375 61.058594 330.1875 65.691406 327.988281 69.1875 C 325.589844 73.003906 322.921875 76.523438 319.535156 79.527344 C 318.238281 80.675781 321.921875 80.960938 322.722656 80.402344 C 330.65625 74.992188 334.285156 62.492188 343.773438 58.835938 C 342.847656 58.585938 341.921875 58.339844 340.996094 58.09375 C 341.339844 61.058594 337.339844 65.691406 335.695312 67.949219 C 332.988281 71.707031 328.914062 78.613281 323.886719 79.464844 C 324.664062 79.75 325.453125 80.03125 326.230469 80.316406 C 326.28125 76.488281 332.804688 70.914062 334.992188 68.382812 C 336.855469 66.234375 338.796875 64.183594 340.796875 62.15625 C 341.601562 61.355469 343.910156 58.191406 344.921875 58.105469 C 344.304688 57.808594 343.6875 57.511719 343.070312 57.214844 C 342.328125 61.652344 337.832031 66.519531 334.980469 69.839844 C 332.433594 72.804688 327.824219 78.304688 323.996094 79.5625 C 322.625 80.664062 322.761719 80.328125 324.402344 78.5625 C 325.035156 77.5 325.726562 76.488281 326.492188 75.511719 C 328.171875 73.226562 330.039062 71.039062 331.867188 68.878906 C 334.65625 65.566406 338.179688 60.328125 342.179688 58.390625 C 343.972656 57.5 340.5625 56.621094 339.523438 57.128906 Z M 339.523438 57.128906 " fill-opacity="1" fill-rule="nonzero"/><path fill="#e8c187" d="M 255.246094 285.25 C 250.34375 268.425781 240.792969 254.117188 226.5 243.792969 C 212.464844 233.648438 197.925781 223.765625 187.882812 209.238281 C 183.359375 202.691406 176.949219 191.128906 178.640625 182.828125 C 177.9375 177.367188 181.125 174.785156 188.203125 175.070312 C 194.292969 169.164062 198.789062 169.632812 201.679688 176.476562 C 203.460938 179.316406 206.386719 185.234375 206.25 188.71875 C 205.804688 200.40625 199.789062 186.707031 198.308594 183.53125 C 196.429688 179.464844 194.933594 175.277344 194.960938 170.734375 C 195.035156 161.515625 202.433594 147.359375 214.898438 160.539062 C 217.183594 162.949219 218.433594 167.71875 219.519531 170.707031 C 220.582031 173.636719 224.066406 180.949219 222.816406 184.074219 C 221.398438 187.632812 220.78125 184.445312 219.40625 181.898438 C 216.40625 176.367188 218 169.78125 220.582031 164.542969 C 222.0625 161.566406 224.015625 158.933594 226.460938 156.636719 C 230.5625 151.71875 234.34375 151.484375 237.804688 155.921875 C 255.011719 168.386719 240.917969 190.128906 239.582031 206.089844 C 238.347656 220.851562 246.019531 236.355469 251.875 249.375 C 257.867188 262.71875 263.992188 276.023438 270.15625 289.277344 C 270.652344 290.339844 274.183594 290.105469 273.703125 288.722656 C 273.617188 288.472656 273.53125 288.226562 273.445312 287.980469 C 273.046875 286.867188 269.429688 287.152344 269.898438 288.535156 C 269.984375 288.78125 270.070312 289.03125 270.15625 289.277344 C 271.34375 289.09375 272.519531 288.90625 273.703125 288.722656 C 264.078125 268.003906 253.074219 247.25 246.265625 225.371094 C 244.425781 219.46875 242.707031 212.386719 243.277344 206.015625 C 243.78125 200.382812 246.5625 194.710938 247.746094 189.113281 C 249.996094 178.527344 251.628906 164.433594 243.769531 155.339844 C 235.875 146.222656 224.324219 152.585938 218.742188 161.144531 C 214.269531 167.988281 212.09375 177.773438 217 185.136719 C 218.617188 187.558594 220.867188 190.707031 224.300781 189.386719 C 234.21875 185.558594 217.925781 155.03125 209.414062 152.929688 C 194.417969 149.226562 189.289062 168.433594 192.808594 179.292969 C 193.910156 182.691406 205.855469 206.113281 209.820312 192.066406 C 213.402344 179.367188 197.640625 162.628906 184.828125 166.457031 C 162.582031 173.117188 181.234375 206.976562 190.277344 217.007812 C 200.210938 228.027344 211.476562 236.070312 223.347656 244.765625 C 237.542969 255.167969 246.847656 269.054688 251.726562 285.792969 C 252.035156 286.90625 255.667969 286.671875 255.246094 285.25 Z M 255.246094 285.25 " fill-opacity="1" fill-rule="nonzero"/></svg>