<?xml version="1.0" encoding="utf-8"?>
<svg
	version="1.1"
	xmlns="http://www.w3.org/2000/svg"
	xmlns:xlink="http://www.w3.org/1999/xlink"
	x="0%" y="0%"
	width="100%" height="100%"
	viewBox="0 0 24.0 24.0"
	enable-background="new 0 0 24.0 24.0"
	xml:space="preserve">
	<path
		fill="#FFFFFF"
		stroke="#6187A3"
		fill-opacity="0.000"
		stroke-opacity="1.000"
		fill-rule="nonzero"
		stroke-width="0.73128515"
		stroke-linejoin="miter"
		stroke-linecap="round"
		d="M8.85,3.61C9.48,4.57,9.83,4.36,11.26,3.87"/>
	<path
		fill="#FFFFFF"
		stroke="#6187A3"
		fill-opacity="0.000"
		stroke-opacity="1.000"
		fill-rule="nonzero"
		stroke-width="0.73128515"
		stroke-linejoin="miter"
		stroke-linecap="round"
		d="M7.11,7.12C9.63,6.20,11.01,5.77,9.04,8.68C8.24,9.95,8.51,10.89,9.96,11.21"/>
	<path
		fill="#FFFFFF"
		stroke="#6187A3"
		fill-opacity="0.000"
		stroke-opacity="1.000"
		fill-rule="nonzero"
		stroke-width="0.73128515"
		stroke-linejoin="miter"
		stroke-linecap="round"
		d="M3.65,7.25C4.87,6.87,6.01,6.63,5.47,4.62"/>
	<path
		fill="#FFFFFF"
		stroke="#6187A3"
		fill-opacity="0.000"
		stroke-opacity="1.000"
		fill-rule="nonzero"
		stroke-width="0.73128515"
		stroke-linejoin="miter"
		stroke-linecap="round"
		d="M7.14,4.10C9.48,6.20,5.82,5.60,7.36,7.95C7.36,10.89,5.70,13.65,2.61,10.29"/>
	<path
		fill="#FFFFFF"
		stroke="#6187A3"
		fill-opacity="0.000"
		stroke-opacity="1.000"
		fill-rule="nonzero"
		stroke-width="0.73128515"
		stroke-linejoin="miter"
		stroke-linecap="round"
		d="M2.61,8.86C-0.79,11.45,0.62,13.85,2.53,17.23C3.36,18.80,4.34,17.99,4.34,17.04C4.39,15.63,5.70,16.12,6.76,16.53C5.60,12.31,3.99,13.19,2.70,14.28"/>
	<path
		fill="#FFFFFF"
		stroke="#6187A3"
		fill-opacity="0.000"
		stroke-opacity="1.000"
		fill-rule="nonzero"
		stroke-width="0.73128515"
		stroke-linejoin="miter"
		stroke-linecap="round"
		d="M10.68,19.21C10.51,17.90,9.90,17.56,8.54,17.90C7.64,17.91,6.91,17.32,6.35,15.30"/>
	<path
		fill="#FFFFFF"
		stroke="#6187A3"
		fill-opacity="0.000"
		stroke-opacity="1.000"
		fill-rule="nonzero"
		stroke-width="0.73128515"
		stroke-linejoin="miter"
		stroke-linecap="round"
		d="M6.80,16.29C7.30,14.98,8.38,15.92,8.54,14.93C8.48,13.29,6.60,13.56,5.72,11.77"/>
	<path
		fill="#FFFFFF"
		stroke="#6187A3"
		fill-opacity="0.000"
		stroke-opacity="1.000"
		fill-rule="nonzero"
		stroke-width="0.73128515"
		stroke-linejoin="miter"
		stroke-linecap="round"
		d="M2.06,19.75C1.19,18.89,-0.57,16.91,1.19,14.78"/>
	<path
		fill="#FFFFFF"
		stroke="#6187A3"
		fill-opacity="0.000"
		stroke-opacity="1.000"
		fill-rule="nonzero"
		stroke-width="0.73128515"
		stroke-linejoin="miter"
		stroke-linecap="round"
		d="M7.36,13.34C9.05,14.58,9.32,13.55,9.33,12.97C9.81,12.10,11.01,12.48,11.55,14.48C12.39,19.06,12.02,19.91,10.78,21.92C7.98,24.20,5.73,22.62,5.69,21.64C4.75,18.26,2.44,21.18,1.41,19.01"/>
	<path
		fill="#FFFFFF"
		stroke="#6187A3"
		fill-opacity="0.000"
		stroke-opacity="1.000"
		fill-rule="nonzero"
		stroke-width="0.73128515"
		stroke-linejoin="miter"
		stroke-linecap="round"
		d="M0.89,15.16L1.01,14.40"/>
	<path
		fill="#FFFFFF"
		stroke="#6187A3"
		fill-opacity="0.000"
		stroke-opacity="1.000"
		fill-rule="nonzero"
		stroke-width="0.73128515"
		stroke-linejoin="miter"
		stroke-linecap="round"
		d="M11.70,15.30L11.57,9.00C12.04,0.61,9.04,0.91,6.96,2.19C5.36,3.79,1.86,4.68,1.86,7.56C1.86,9.22,3.83,9.22,5.23,8.67"/>
	<path
		fill="#FFFFFF"
		stroke="#6187A3"
		fill-opacity="0.000"
		stroke-opacity="1.000"
		fill-rule="nonzero"
		stroke-width="0.73128515"
		stroke-linejoin="miter"
		stroke-linecap="round"
		d="M15.15,3.56C14.51,4.53,14.17,4.32,12.74,3.82"/>
	<path
		fill="#FFFFFF"
		stroke="#6187A3"
		fill-opacity="0.000"
		stroke-opacity="1.000"
		fill-rule="nonzero"
		stroke-width="0.73128515"
		stroke-linejoin="miter"
		stroke-linecap="round"
		d="M16.89,7.08C14.37,6.16,12.99,5.73,14.96,8.64C15.76,9.91,15.49,10.84,14.03,11.17"/>
	<path
		fill="#FFFFFF"
		stroke="#6187A3"
		fill-opacity="0.000"
		stroke-opacity="1.000"
		fill-rule="nonzero"
		stroke-width="0.73128515"
		stroke-linejoin="miter"
		stroke-linecap="round"
		d="M20.35,7.21C19.13,6.82,17.98,6.58,18.52,4.58"/>
	<path
		fill="#FFFFFF"
		stroke="#6187A3"
		fill-opacity="0.000"
		stroke-opacity="1.000"
		fill-rule="nonzero"
		stroke-width="0.73128515"
		stroke-linejoin="miter"
		stroke-linecap="round"
		d="M16.86,4.05C14.51,6.16,18.17,5.56,16.64,7.91C16.64,10.84,18.30,13.60,21.39,10.25"/>
	<path
		fill="#FFFFFF"
		stroke="#6187A3"
		fill-opacity="0.000"
		stroke-opacity="1.000"
		fill-rule="nonzero"
		stroke-width="0.73128515"
		stroke-linejoin="miter"
		stroke-linecap="round"
		d="M21.39,8.82C24.78,11.41,23.38,13.81,21.46,17.18C20.63,18.75,19.66,17.94,19.66,16.99C19.61,15.58,18.30,16.07,17.23,16.49C18.40,12.27,20.00,13.14,21.29,14.24"/>
	<path
		fill="#FFFFFF"
		stroke="#6187A3"
		fill-opacity="0.000"
		stroke-opacity="1.000"
		fill-rule="nonzero"
		stroke-width="0.73128515"
		stroke-linejoin="miter"
		stroke-linecap="round"
		d="M13.31,19.17C13.49,17.86,14.10,17.52,15.46,17.86C16.36,17.87,17.09,17.28,17.64,15.26"/>
	<path
		fill="#FFFFFF"
		stroke="#6187A3"
		fill-opacity="0.000"
		stroke-opacity="1.000"
		fill-rule="nonzero"
		stroke-width="0.73128515"
		stroke-linejoin="miter"
		stroke-linecap="round"
		d="M17.19,16.25C16.69,14.93,15.62,15.88,15.46,14.88C15.52,13.25,17.40,13.52,18.28,11.73"/>
	<path
		fill="#FFFFFF"
		stroke="#6187A3"
		fill-opacity="0.000"
		stroke-opacity="1.000"
		fill-rule="nonzero"
		stroke-width="0.73128515"
		stroke-linejoin="miter"
		stroke-linecap="round"
		d="M21.93,19.71C22.80,18.85,24.57,16.87,22.80,14.74"/>
	<path
		fill="#FFFFFF"
		stroke="#6187A3"
		fill-opacity="0.000"
		stroke-opacity="1.000"
		fill-rule="nonzero"
		stroke-width="0.73128515"
		stroke-linejoin="miter"
		stroke-linecap="round"
		d="M12.55,20.45C13.50,21.55,14.91,21.79,16.66,19.67"/>
	<path
		fill="#FFFFFF"
		stroke="#6187A3"
		fill-opacity="0.000"
		stroke-opacity="1.000"
		fill-rule="nonzero"
		stroke-width="0.73128515"
		stroke-linejoin="miter"
		stroke-linecap="round"
		d="M16.64,13.30C14.94,14.54,14.68,13.51,14.67,12.93C14.19,12.06,12.99,12.44,12.44,14.44C11.61,19.01,11.97,19.87,13.21,21.87C16.01,24.16,18.27,22.58,18.31,21.59C19.24,18.22,21.56,21.14,22.59,18.96"/>
	<path
		fill="#FFFFFF"
		stroke="#6187A3"
		fill-opacity="0.000"
		stroke-opacity="1.000"
		fill-rule="nonzero"
		stroke-width="0.73128515"
		stroke-linejoin="miter"
		stroke-linecap="round"
		d="M23.11,15.12L22.98,14.36"/>
	<path
		fill="#FFFFFF"
		stroke="#6187A3"
		fill-opacity="0.000"
		stroke-opacity="1.000"
		fill-rule="nonzero"
		stroke-width="0.73128515"
		stroke-linejoin="miter"
		stroke-linecap="round"
		d="M12.30,15.26L12.42,8.95C11.95,0.56,14.96,0.87,17.04,2.15C18.64,3.75,22.14,4.64,22.14,7.52C22.14,9.17,20.17,9.17,18.76,8.63"/>
	<path
		fill="#FFFFFF"
		stroke="#6187A3"
		fill-opacity="0.000"
		stroke-opacity="1.000"
		fill-rule="nonzero"
		stroke-width="0.73128515"
		stroke-linejoin="miter"
		stroke-linecap="round"
		d="M12.04,7.96L11.45,20.50C10.49,21.60,9.08,21.83,7.33,19.71"/>
</svg>